<svg width="473" height="315" viewBox="0 0 473 315" fill="none" xmlns="http://www.w3.org/2000/svg">
<g filter="url(#filter0_d)">
<rect x="17" y="161.098" width="130.751" height="130.751" rx="4" fill="white"/>
</g>
<g filter="url(#filter1_d)">
<rect x="319" y="161" width="130.751" height="130.751" rx="4" fill="white"/>
</g>
<path d="M54.6374 271.322C55.6614 271.738 56.7494 272.01 57.8694 272.01C59.8694 272.01 61.7574 270.986 61.7574 268.698C61.7574 267.018 60.4134 266.138 58.6374 265.498C57.1174 264.97 56.4934 264.442 56.4934 263.642C56.4934 262.586 57.3894 262.058 58.3654 262.058C59.4374 262.058 60.2214 262.298 61.1174 262.65L61.5014 261.178C60.5094 260.762 59.5334 260.49 58.3654 260.49C56.4294 260.49 54.6374 261.53 54.6374 263.706C54.6374 265.37 56.0294 266.314 57.7254 266.89C59.3254 267.402 59.9014 267.882 59.9014 268.778C59.9014 269.946 58.9094 270.442 57.8694 270.442C56.7654 270.442 55.9334 270.202 55.0054 269.866L54.6374 271.322ZM63.7231 271.85H65.5151V266.378C65.9951 265.626 66.8431 265.194 67.7711 265.194C68.7311 265.194 69.5151 265.786 69.5151 267.178V271.85H71.3071V267.114C71.3071 264.842 69.9951 263.69 68.4111 263.69C67.1471 263.69 66.1871 264.17 65.6111 264.858L65.5151 264.826V260.17H63.7231V271.85ZM73.0529 267.85C73.0529 270.17 74.9089 272.01 77.3409 272.01C79.7889 272.01 81.6449 270.17 81.6449 267.85C81.6449 265.53 79.7889 263.69 77.3409 263.69C74.9089 263.69 73.0529 265.53 73.0529 267.85ZM74.8449 267.85C74.8449 266.362 75.9329 265.194 77.3409 265.194C78.7649 265.194 79.8529 266.362 79.8529 267.85C79.8529 269.354 78.7649 270.506 77.3409 270.506C75.9329 270.506 74.8449 269.354 74.8449 267.85ZM87.5709 272.01C89.8269 272.01 91.5869 270.17 91.5869 267.85C91.5869 265.53 89.8909 263.69 87.7309 263.69C86.6429 263.69 85.7949 264.106 85.2829 264.682L85.1869 264.65V263.85H83.3949V275.53H85.1869V271.274C85.7789 271.738 86.4989 272.01 87.5709 272.01ZM87.3469 265.194C88.6909 265.194 89.7949 266.362 89.7949 267.85C89.7949 269.354 88.6909 270.506 87.3469 270.506C86.4669 270.506 85.7149 270.33 85.1869 270.01V266.282C85.6509 265.482 86.4669 265.194 87.3469 265.194ZM93.5724 271.85H95.3644V263.85H93.5724V271.85ZM93.4284 261.45C93.4284 261.898 93.8124 262.346 94.4524 262.346C95.1244 262.346 95.4924 261.898 95.4924 261.45C95.4924 260.986 95.1244 260.538 94.4524 260.538C93.8124 260.538 93.4284 260.986 93.4284 261.45ZM96.9178 265.29H98.2138V271.85H100.006V265.29H102.022V263.85H100.006V263.018C100.006 262.042 100.47 261.514 101.318 261.514C101.83 261.514 102.278 261.562 102.678 261.706L102.998 260.346C102.454 260.106 101.83 260.01 101.19 260.01C99.3818 260.01 98.2138 261.194 98.2138 263.018V263.85H96.9178V265.29ZM104.528 263.85H102.528L105.84 271.77L105.472 272.858C105.04 273.882 104.496 274.346 103.264 274.346L103.376 275.834C105.696 275.834 106.544 274.682 107.136 273.146L110.768 263.85H108.768L106.8 269.85H106.704L106.576 269.258L104.528 263.85Z" fill="#1A3349"/>
<path d="M350.119 271.752H351.911V267.528H354.135C356.919 267.528 358.423 266.024 358.423 264.04C358.423 262.072 356.919 260.552 354.135 260.552H350.119V271.752ZM354.135 262.056C355.831 262.056 356.631 262.92 356.631 264.04C356.631 265.192 355.831 266.024 354.135 266.024H351.911V262.056H354.135ZM360.358 271.752H362.15V263.752H360.358V271.752ZM360.214 261.352C360.214 261.8 360.598 262.248 361.238 262.248C361.91 262.248 362.278 261.8 362.278 261.352C362.278 260.888 361.91 260.44 361.238 260.44C360.598 260.44 360.214 260.888 360.214 261.352ZM368.903 271.912C371.159 271.912 372.919 270.072 372.919 267.752C372.919 265.432 371.223 263.592 369.063 263.592C367.975 263.592 367.127 264.008 366.615 264.584L366.519 264.552V263.752H364.727V275.432H366.519V271.176C367.111 271.64 367.831 271.912 368.903 271.912ZM368.679 265.096C370.023 265.096 371.127 266.264 371.127 267.752C371.127 269.256 370.023 270.408 368.679 270.408C367.799 270.408 367.047 270.232 366.519 269.912V266.184C366.983 265.384 367.799 265.096 368.679 265.096ZM378.12 263.592C375.672 263.624 374.152 265.576 374.152 267.768C374.152 270.344 375.976 271.912 378.664 271.912C379.592 271.912 380.52 271.704 381.352 271.288L381.016 269.928C380.328 270.248 379.512 270.408 378.664 270.408C376.936 270.376 376.088 269.656 375.96 268.168H381.848V267.208C381.704 264.856 380.296 263.592 378.12 263.592ZM378.168 265.096C379.176 265.096 379.96 265.672 380.04 266.856H376.04C376.28 265.816 377.016 265.096 378.168 265.096ZM387.232 263.592C384.992 263.592 383.216 265.432 383.216 267.752C383.216 270.072 384.928 271.912 387.072 271.912C388.096 271.912 388.912 271.56 389.424 271.032L389.52 271.064V271.752H391.312V260.072H389.52V264.248C388.928 263.832 388.224 263.592 387.232 263.592ZM387.456 270.408C386.128 270.408 385.008 269.24 385.008 267.752C385.008 266.248 386.128 265.096 387.456 265.096C388.288 265.096 388.992 265.272 389.52 265.592V269.416C389.04 270.136 388.288 270.408 387.456 270.408ZM393.446 271.768H395.238V266.168C395.798 265.592 396.582 265.224 397.494 265.224H397.878V263.592H397.654C396.678 263.592 395.862 264.056 395.334 264.696L395.238 264.664V263.752H393.446V271.768ZM399.576 271.752H401.368V263.752H399.576V271.752ZM399.432 261.352C399.432 261.8 399.816 262.248 400.456 262.248C401.128 262.248 401.496 261.8 401.496 261.352C401.496 260.888 401.128 260.44 400.456 260.44C399.816 260.44 399.432 260.888 399.432 261.352ZM404.842 263.752H402.922L406.234 271.752H408.042L411.354 263.752H409.418L407.274 269.592L407.178 270.024H407.082L406.986 269.592L404.842 263.752ZM415.98 263.592C413.532 263.624 412.012 265.576 412.012 267.768C412.012 270.344 413.836 271.912 416.524 271.912C417.452 271.912 418.38 271.704 419.212 271.288L418.876 269.928C418.188 270.248 417.372 270.408 416.524 270.408C414.796 270.376 413.948 269.656 413.82 268.168H419.708V267.208C419.564 264.856 418.156 263.592 415.98 263.592ZM416.028 265.096C417.036 265.096 417.82 265.672 417.9 266.856H413.9C414.14 265.816 414.876 265.096 416.028 265.096Z" fill="#1A3349"/>
<path d="M103.72 191.989C103.674 191.659 103.386 191.477 103.148 191.457C102.91 191.437 97.8755 191.064 97.8755 191.064C97.8755 191.064 94.3791 187.593 93.9955 187.209C93.6114 186.825 92.8616 186.942 92.5706 187.027C92.5275 187.04 91.8066 187.263 90.6138 187.631C89.4457 184.271 87.3847 181.182 83.7583 181.182C83.6583 181.182 83.5552 181.186 83.4521 181.192C82.4208 179.828 81.1432 179.236 80.0398 179.236C71.5927 179.236 67.5569 189.796 66.2915 195.162C63.0092 196.179 60.6772 196.902 60.3794 196.996C58.5473 197.57 58.4894 197.628 58.2489 199.355C58.0674 200.662 53.2734 237.736 53.2734 237.736L90.629 244.735L110.87 240.356C110.87 240.356 103.764 192.318 103.72 191.989ZM88.5491 188.27C87.6109 188.561 86.5444 188.891 85.3884 189.248C85.3894 189.026 85.3905 188.806 85.3905 188.567C85.3905 186.478 85.1005 184.796 84.6354 183.463C86.5039 183.698 87.7482 185.824 88.5491 188.27ZM82.3176 183.877C82.837 185.179 83.1748 187.047 83.1748 189.568C83.1748 189.697 83.1737 189.815 83.1727 189.934C81.1169 190.571 78.8833 191.262 76.6444 191.956C77.9015 187.104 80.2577 184.761 82.3176 183.877ZM79.8078 181.502C80.1724 181.502 80.5397 181.625 80.8912 181.867C78.184 183.141 75.2822 186.35 74.0567 192.757C72.2656 193.311 70.5151 193.853 68.8965 194.355C70.3319 189.468 73.7405 181.502 79.8078 181.502Z" fill="#95BF46"/>
<path d="M103.157 191.455C102.919 191.435 97.885 191.062 97.885 191.062C97.885 191.062 94.3886 187.591 94.005 187.207C93.8613 187.064 93.6677 186.991 93.4651 186.959L90.6406 244.732L110.879 240.354C110.879 240.354 103.774 192.316 103.729 191.987C103.684 191.657 103.396 191.475 103.157 191.455Z" fill="#5E8E3E"/>
<path d="M83.7671 202.641L81.2714 210.065C81.2714 210.065 79.0847 208.898 76.4043 208.898C72.4749 208.898 72.2771 211.364 72.2771 211.985C72.2771 215.376 81.1157 216.675 81.1157 224.617C81.1157 230.865 77.1526 234.889 71.8088 234.889C65.3963 234.889 62.1172 230.898 62.1172 230.898L63.8341 225.225C63.8341 225.225 67.2047 228.119 70.0492 228.119C71.9077 228.119 72.6638 226.656 72.6638 225.587C72.6638 221.164 65.4126 220.966 65.4126 213.699C65.4126 207.582 69.803 201.663 78.6653 201.663C82.0802 201.663 83.7671 202.641 83.7671 202.641Z" fill="white"/>
<g filter="url(#filter2_d)">
<rect x="168" y="161.098" width="130.751" height="130.751" rx="4" fill="white"/>
<path d="M210.681 271.85H212.473V260.65H210.137L206.505 269.066L206.329 269.754H206.233L206.057 269.066L202.409 260.65H200.041V271.85H201.833V263.258L201.929 263.242L202.121 263.914L205.625 271.85H206.921L210.425 263.914L210.585 263.354L210.681 263.37V271.85ZM218.307 263.69C216.067 263.69 214.291 265.53 214.291 267.85C214.291 270.17 216.003 272.01 218.147 272.01C219.235 272.01 220.115 271.594 220.627 271.002L220.723 271.034V271.85H222.515V263.85H220.723V264.41L220.643 264.442C220.115 263.994 219.379 263.69 218.307 263.69ZM218.531 270.506C217.187 270.506 216.083 269.338 216.083 267.85C216.083 266.346 217.187 265.194 218.531 265.194C219.411 265.194 220.179 265.45 220.723 265.866V269.29C220.259 270.17 219.427 270.506 218.531 270.506ZM230.721 272.138C230.721 273.45 229.681 274.186 228.449 274.186C227.521 274.186 226.721 274.106 226.001 273.818L225.681 275.226C226.593 275.594 227.473 275.69 228.513 275.69C230.673 275.69 232.513 274.346 232.513 272.138V263.85H230.721V264.314C230.129 263.93 229.425 263.69 228.417 263.69C226.097 263.69 224.401 265.53 224.401 267.85C224.401 270.17 226.033 272.01 228.257 272.01C229.281 272.01 230.113 271.642 230.625 271.114L230.721 271.146V272.138ZM228.641 270.506C227.233 270.506 226.193 269.338 226.193 267.85C226.193 266.346 227.233 265.194 228.641 265.194C229.377 265.194 230.177 265.37 230.721 265.706V269.482C230.241 270.218 229.473 270.506 228.641 270.506ZM238.308 263.69C235.86 263.722 234.34 265.674 234.34 267.866C234.34 270.442 236.164 272.01 238.852 272.01C239.78 272.01 240.708 271.802 241.54 271.386L241.204 270.026C240.516 270.346 239.7 270.506 238.852 270.506C237.124 270.474 236.276 269.754 236.148 268.266H242.036V267.306C241.892 264.954 240.484 263.69 238.308 263.69ZM238.356 265.194C239.364 265.194 240.148 265.77 240.228 266.954H236.228C236.468 265.914 237.204 265.194 238.356 265.194ZM243.868 271.85H245.66V266.282C246.156 265.546 247.004 265.194 247.916 265.194C248.876 265.194 249.66 265.77 249.66 267.114V271.85H251.452V267.05C251.452 264.826 250.14 263.69 248.556 263.69C247.292 263.69 246.332 264.17 245.756 264.858L245.66 264.826V263.85H243.868V271.85ZM252.689 265.29H253.921V269.082C253.921 270.906 255.153 271.93 256.769 271.93C257.361 271.93 257.969 271.818 258.417 271.594L258.097 270.186C257.793 270.314 257.393 270.362 256.961 270.362C256.241 270.362 255.713 269.962 255.713 269.018V265.29H257.889V263.85H255.713V261.29H253.921V263.85H252.689V265.29ZM259.276 267.85C259.276 270.17 261.132 272.01 263.564 272.01C266.012 272.01 267.868 270.17 267.868 267.85C267.868 265.53 266.012 263.69 263.564 263.69C261.132 263.69 259.276 265.53 259.276 267.85ZM261.068 267.85C261.068 266.362 262.156 265.194 263.564 265.194C264.988 265.194 266.076 266.362 266.076 267.85C266.076 269.354 264.988 270.506 263.564 270.506C262.156 270.506 261.068 269.354 261.068 267.85Z" fill="#1A3349"/>
<path d="M236.773 198.479V236.936L232.974 239.248L229.172 236.924V198.508L219.327 204.542V237.43L232.974 245.743L246.736 237.371V204.521L236.773 198.479ZM232.974 178.228L204.273 195.538V228.43L211.728 232.801V199.906L232.98 187.042L254.252 199.887L254.34 199.937L254.33 232.752L261.711 228.43V195.538L232.974 178.228Z" fill="#F26322"/>
</g>
<g filter="url(#filter3_d)">
<path fill-rule="evenodd" clip-rule="evenodd" d="M86 26.6C86 23.2397 86 21.5595 86.654 20.2761C87.2292 19.1471 88.1471 18.2292 89.2761 17.654C90.5595 17 92.2397 17 95.6 17H370.4C373.76 17 375.44 17 376.724 17.654C377.853 18.2292 378.771 19.1471 379.346 20.2761C380 21.5595 380 23.2397 380 26.6V115.221C380 118.582 380 120.262 379.346 121.545C378.771 122.674 377.853 123.592 376.724 124.167C375.44 124.821 373.76 124.821 370.4 124.821H95.6C92.2397 124.821 90.5595 124.821 89.2761 124.167C88.1471 123.592 87.2292 122.674 86.654 121.545C86 120.262 86 118.582 86 115.221V26.6Z" fill="white"/>
<path d="M133.315 77.0306C135.37 77.0306 137.278 76.737 138.941 75.7585L140.507 82.0702C138.11 83.2934 135.859 83.6359 133.315 83.6359C124.703 83.6359 118 77.2263 118 69.1042C118 60.9821 124.703 54.5725 133.315 54.5725C135.908 54.5725 138.11 54.8172 140.507 56.0404L138.941 62.3032C137.473 61.6671 135.712 61.1778 133.315 61.1778C129.009 61.1778 125.584 64.5539 125.584 69.1042C125.584 73.7524 129.009 77.0306 133.315 77.0306Z" fill="#23D99C"/>
<path d="M144.277 42.2914H152.302V58.3399L152.644 58.4377C154.552 56.187 157.782 54.5724 161.989 54.5724C167.518 54.5724 172.118 58.6334 172.118 66.7555V83.0976H164.044V67.1959C164.044 62.9391 161.598 61.1777 158.613 61.1777C156.02 61.1777 153.623 62.4499 152.302 64.2113V83.0976H144.277V42.2914Z" fill="#23D99C"/>
<path d="M198.537 57.0677L198.83 56.921V55.2085H206.854V83.1465H198.83V80.4555L198.488 80.3576C196.775 82.3148 193.84 83.7337 190.268 83.7337C182.733 83.7337 176.812 77.3241 176.812 69.202C176.812 61.0799 182.977 54.6703 190.855 54.6703C194.329 54.5724 196.775 55.5999 198.537 57.0677ZM198.83 73.263V63.0859C197.118 61.9116 194.671 61.1777 191.833 61.1777C187.968 61.1777 184.837 64.4559 184.837 69.1041C184.837 73.7034 187.968 77.0305 191.833 77.0305C194.671 77.0305 197.362 76.0519 198.83 73.263Z" fill="#23D99C"/>
<path d="M213.883 55.1596H221.907V58.34L222.25 58.4378C224.158 56.1871 227.387 54.5725 231.595 54.5725C237.124 54.5725 241.723 58.5357 241.723 66.3153V83.0977H233.699V66.7557C233.699 62.8414 231.252 61.1778 228.268 61.1778C225.772 61.1778 223.473 61.9607 221.956 63.6243V83.0977H213.883V55.1596Z" fill="#23D99C"/>
<path d="M247.863 55.1596H255.888V58.34L256.23 58.4378C258.138 56.1871 261.368 54.5725 265.575 54.5725C271.104 54.5725 275.703 58.5357 275.703 66.3153V83.0977H267.679V66.7557C267.679 62.8414 265.233 61.1778 262.248 61.1778C259.753 61.1778 257.453 61.9607 255.936 63.6243V83.0977H247.912V55.1596H247.863Z" fill="#23D99C"/>
<path d="M308.139 68.1256V71.5016H288.274C288.813 75.367 291.308 77.0305 296.543 77.0794C299.528 77.0794 302.366 76.5412 304.763 75.4159L306.182 81.2873C303.198 82.9019 299.87 83.6848 296.592 83.6848C286.513 83.6848 280.152 78.2048 280.152 69.202C280.152 61.5692 285.388 54.7192 294.439 54.6214C302.464 54.5724 307.993 59.2695 308.139 68.1256ZM288.519 66.2174H300.017C299.675 62.5967 297.522 61.1777 294.684 61.1777C291.21 61.1777 289.253 62.9881 288.519 66.2174Z" fill="#23D99C"/>
<path d="M313.07 83.5869C313.07 76.688 313.07 80.1619 313.07 73.5076V42.2914H321.095V72.6269C321.095 75.2201 321.095 80.5044 321.095 83.5869H313.07Z" fill="#23D99C"/>
<path d="M328.186 75.3671C330.682 76.1988 333.275 76.8349 335.819 76.8349C338.168 76.8349 340.027 76.1499 340.027 74.5353C340.027 73.2631 339.244 72.3335 335.672 71.6485C330.29 70.5232 326.914 67.881 326.914 63.4286C326.914 57.5572 332.149 54.6215 337.972 54.6215C341.152 54.6215 344.186 55.4043 346.926 56.5297L345.751 62.7925C343.354 61.9607 340.908 61.3246 338.412 61.3246C336.504 61.3246 334.84 62.0586 334.84 63.4286C334.84 64.5539 335.477 65.4835 339.195 66.2175C344.675 67.3428 348.002 69.5935 348.002 74.3396C348.002 80.6513 342.375 83.5381 336.308 83.5381C333.03 83.5381 329.899 82.8042 326.914 81.6788L328.186 75.3671Z" fill="#23D99C"/>
</g>
<rect x="353.906" y="182.807" width="62.1934" height="62.1934" rx="3" fill="#231F1F"/>
<path d="M388.375 192.524C383.461 192.524 380.619 194.758 379.248 196.301C379.085 194.972 378.219 193.247 374.841 193.247H367.504V201.026H370.511C371.02 201.026 371.184 201.19 371.184 201.705V237.226H379.929V223.894C379.929 223.534 379.922 223.198 379.913 222.897C381.279 224.168 383.888 225.918 387.963 225.918C396.511 225.918 402.488 219.054 402.488 209.223C402.488 199.236 396.813 192.524 388.375 192.524ZM386.598 218.201C381.89 218.201 379.751 213.635 379.751 209.404C379.751 202.739 383.349 200.364 386.715 200.364C390.843 200.364 393.62 203.97 393.62 209.341C393.62 215.466 390.09 218.201 386.598 218.201Z" fill="white"/>
<circle cx="233.498" cy="124.812" r="19.4979" fill="#366BF3"/>
<path d="M224.336 124.812H242.093" stroke="white" stroke-width="2" stroke-linecap="round"/>
<path d="M233.371 115.76L233.371 133.517" stroke="white" stroke-width="2" stroke-linecap="round"/>
<defs>
<filter id="filter0_d" x="0" y="144.098" width="170.751" height="170.751" filterUnits="userSpaceOnUse" color-interpolation-filters="sRGB">
<feFlood flood-opacity="0" result="BackgroundImageFix"/>
<feColorMatrix in="SourceAlpha" type="matrix" values="0 0 0 0 0 0 0 0 0 0 0 0 0 0 0 0 0 0 127 0"/>
<feOffset dx="3" dy="3"/>
<feGaussianBlur stdDeviation="10"/>
<feColorMatrix type="matrix" values="0 0 0 0 0.468403 0 0 0 0 0.520125 0 0 0 0 0.791667 0 0 0 0.34 0"/>
<feBlend mode="normal" in2="BackgroundImageFix" result="effect1_dropShadow"/>
<feBlend mode="normal" in="SourceGraphic" in2="effect1_dropShadow" result="shape"/>
</filter>
<filter id="filter1_d" x="302" y="144" width="170.751" height="170.751" filterUnits="userSpaceOnUse" color-interpolation-filters="sRGB">
<feFlood flood-opacity="0" result="BackgroundImageFix"/>
<feColorMatrix in="SourceAlpha" type="matrix" values="0 0 0 0 0 0 0 0 0 0 0 0 0 0 0 0 0 0 127 0"/>
<feOffset dx="3" dy="3"/>
<feGaussianBlur stdDeviation="10"/>
<feColorMatrix type="matrix" values="0 0 0 0 0.468403 0 0 0 0 0.520125 0 0 0 0 0.791667 0 0 0 0.34 0"/>
<feBlend mode="normal" in2="BackgroundImageFix" result="effect1_dropShadow"/>
<feBlend mode="normal" in="SourceGraphic" in2="effect1_dropShadow" result="shape"/>
</filter>
<filter id="filter2_d" x="151" y="144.098" width="170.751" height="170.751" filterUnits="userSpaceOnUse" color-interpolation-filters="sRGB">
<feFlood flood-opacity="0" result="BackgroundImageFix"/>
<feColorMatrix in="SourceAlpha" type="matrix" values="0 0 0 0 0 0 0 0 0 0 0 0 0 0 0 0 0 0 127 0"/>
<feOffset dx="3" dy="3"/>
<feGaussianBlur stdDeviation="10"/>
<feColorMatrix type="matrix" values="0 0 0 0 0.468403 0 0 0 0 0.520125 0 0 0 0 0.791667 0 0 0 0.34 0"/>
<feBlend mode="normal" in2="BackgroundImageFix" result="effect1_dropShadow"/>
<feBlend mode="normal" in="SourceGraphic" in2="effect1_dropShadow" result="shape"/>
</filter>
<filter id="filter3_d" x="69" y="0" width="334" height="147.821" filterUnits="userSpaceOnUse" color-interpolation-filters="sRGB">
<feFlood flood-opacity="0" result="BackgroundImageFix"/>
<feColorMatrix in="SourceAlpha" type="matrix" values="0 0 0 0 0 0 0 0 0 0 0 0 0 0 0 0 0 0 127 0"/>
<feOffset dx="3" dy="3"/>
<feGaussianBlur stdDeviation="10"/>
<feColorMatrix type="matrix" values="0 0 0 0 0.468403 0 0 0 0 0.520125 0 0 0 0 0.791667 0 0 0 0.34 0"/>
<feBlend mode="normal" in2="BackgroundImageFix" result="effect1_dropShadow"/>
<feBlend mode="normal" in="SourceGraphic" in2="effect1_dropShadow" result="shape"/>
</filter>
</defs>
</svg>
