<svg width="59" height="47" viewBox="0 0 59 47" fill="none" xmlns="http://www.w3.org/2000/svg">
<path d="M14.6617 24.6528C17.7236 25.0075 20.02 26.3082 21.5509 28.5547C23.0818 30.8013 23.8473 33.2843 23.8473 36.0038C23.8473 38.8415 22.9052 41.3836 21.021 43.6302C19.2545 45.8767 16.6048 47 13.0719 47C11.6587 47 10.1866 46.7635 8.65569 46.2906C7.12475 45.6994 5.71158 44.7535 4.41617 43.4528C3.12076 42.1522 2.06088 40.3786 1.23653 38.1321C0.412176 35.8855 0 33.0478 0 29.6189C0 23.234 1.82535 17.4994 5.47605 12.4151C9.12675 7.21257 13.7784 3.07421 19.4311 0L24.5539 7.09433C21.492 8.74968 18.7246 10.9962 16.2515 13.834C13.8962 16.5535 12.3064 19.9824 11.482 24.1207L14.6617 24.6528ZM49.1078 24.6528C52.1697 25.0075 54.4661 26.3082 55.997 28.5547C57.5279 30.8013 58.2934 33.2843 58.2934 36.0038C58.2934 38.8415 57.3513 41.3836 55.4671 43.6302C53.7006 45.8767 51.0509 47 47.518 47C46.1048 47 44.6327 46.7635 43.1018 46.2906C41.5709 45.6994 40.1577 44.7535 38.8623 43.4528C37.5669 42.1522 36.507 40.3786 35.6826 38.1321C34.8583 35.8855 34.4461 33.0478 34.4461 29.6189C34.4461 23.234 36.2715 17.4994 39.9222 12.4151C43.5728 7.21257 48.2246 3.07421 53.8772 0L59 7.09433C55.9381 8.74968 53.1707 10.9962 50.6976 13.834C48.3423 16.5535 46.7525 19.9824 45.9281 24.1207L49.1078 24.6528Z" fill="#DBE9FE"/>
</svg>
