<svg width="169" height="49" viewBox="0 0 169 49" fill="none" xmlns="http://www.w3.org/2000/svg">
<path d="M168.831 43.583C168.831 44.2212 168.705 44.8531 168.461 45.4427C168.216 46.0322 167.858 46.5678 167.407 47.0188C166.955 47.4698 166.419 47.8274 165.829 48.0711C165.239 48.3148 164.607 48.4398 163.969 48.439H4.868C4.22951 48.4398 3.59712 48.3148 3.00694 48.0712C2.41675 47.8276 1.88032 47.4701 1.42829 47.0192C0.976253 46.5683 0.617459 46.0327 0.372393 45.4431C0.127327 44.8536 0.000787445 44.2215 0 43.583V4.862C0.0018545 3.57205 0.515518 2.33555 1.42822 1.42397C2.34091 0.512402 3.57805 0.000263702 4.868 1.0289e-07H163.968C164.607 -0.000131267 165.239 0.125538 165.829 0.36983C166.419 0.614122 166.955 0.972249 167.406 1.42375C167.858 1.87526 168.216 2.41129 168.46 3.00124C168.704 3.59118 168.83 4.22348 168.83 4.862V43.583H168.831Z" fill="white"/>
<path d="M168.831 43.583C168.831 44.2212 168.705 44.8531 168.461 45.4427C168.216 46.0322 167.858 46.5678 167.407 47.0188C166.955 47.4698 166.419 47.8274 165.829 48.0711C165.239 48.3148 164.607 48.4398 163.969 48.439H4.868C4.22951 48.4398 3.59712 48.3148 3.00694 48.0712C2.41675 47.8276 1.88032 47.4701 1.42829 47.0192C0.976253 46.5683 0.617459 46.0327 0.372393 45.4431C0.127327 44.8536 0.000787445 44.2215 0 43.583V4.862C0.0018545 3.57205 0.515518 2.33555 1.42822 1.42397C2.34091 0.512402 3.57805 0.000263702 4.868 1.0289e-07H163.968C164.607 -0.000131267 165.239 0.125538 165.829 0.36983C166.419 0.614122 166.955 0.972249 167.406 1.42375C167.858 1.87526 168.216 2.41129 168.46 3.00124C168.704 3.59118 168.83 4.22348 168.83 4.862V43.583H168.831Z" fill="black"/>
<path d="M36.989 23.898C37.0051 22.6612 37.3338 21.4485 37.9445 20.3729C38.5552 19.2972 39.4282 18.3936 40.4821 17.746C39.8125 16.7896 38.9291 16.0024 37.9022 15.4469C36.8753 14.8915 35.733 14.583 34.5661 14.546C32.0781 14.284 29.666 16.035 28.396 16.035C27.103 16.035 25.1511 14.572 23.0471 14.615C21.6867 14.6595 20.361 15.0558 19.1994 15.7653C18.0378 16.4747 17.0799 17.4731 16.4191 18.663C13.5521 23.625 15.6901 30.917 18.4371 34.927C19.8111 36.893 21.416 39.084 23.5181 39.007C25.574 38.924 26.3421 37.698 28.8181 37.698C31.2761 37.698 31.9971 39.007 34.1401 38.958C36.3461 38.924 37.74 36.985 39.061 35.003C40.0487 33.6042 40.8084 32.0577 41.312 30.421C40.0312 29.8775 38.9384 28.9694 38.1698 27.8095C37.4011 26.6497 36.9905 25.2894 36.989 23.898ZM32.9411 11.91C34.144 10.4668 34.7367 8.61136 34.5931 6.73804C32.7558 6.93147 31.0586 7.80933 29.839 9.19704C29.2421 9.87471 28.7846 10.6635 28.4929 11.5182C28.2012 12.3729 28.081 13.2768 28.1391 14.178C29.059 14.1883 29.9692 13.9895 30.8011 13.5967C31.6329 13.2038 32.3647 12.6271 32.9411 11.91Z" fill="white"/>
<path d="M67.158 38.837H64.285L62.711 33.893H57.241L55.741 38.837H52.941L58.362 22.005H61.709L67.158 38.837ZM62.233 31.816L60.81 27.416C60.6594 26.9667 60.3764 25.9097 59.961 24.245H59.91C59.7434 24.961 59.4767 26.018 59.11 27.416L57.71 31.816H62.233ZM81.068 32.616C81.1662 34.4043 80.5624 36.1603 79.385 37.51C78.911 38.0275 78.332 38.4379 77.6867 38.7138C77.0414 38.9897 76.3447 39.1248 75.643 39.11C74.9634 39.1658 74.2814 39.035 73.6706 38.7317C73.0598 38.4284 72.5434 37.9642 72.177 37.389V43.757H69.477V30.686C69.477 29.3893 69.4437 28.0597 69.377 26.697H71.749L71.9 28.621H71.951C72.3599 27.9955 72.9091 27.4741 73.555 27.0983C74.2009 26.7225 74.9256 26.5026 75.6714 26.4563C76.4172 26.41 77.1636 26.5385 77.851 26.8314C78.5384 27.1244 79.148 27.5739 79.631 28.144C80.6345 29.4123 81.1463 31.0004 81.072 32.616H81.068ZM78.32 32.716C78.3622 31.6824 78.0827 30.6611 77.52 29.793C77.2596 29.4132 76.9084 29.1045 76.4984 28.895C76.0883 28.6854 75.6324 28.5816 75.172 28.593C74.5095 28.593 73.8683 28.8275 73.362 29.255C72.821 29.6964 72.4467 30.3091 72.301 30.992C72.2271 31.2598 72.1852 31.5354 72.176 31.813V33.837C72.1541 34.6582 72.4443 35.4572 72.988 36.073C73.251 36.3709 73.5764 36.6071 73.9411 36.7648C74.3059 36.9224 74.7009 36.9976 75.098 36.985C75.5601 37.0033 76.0193 36.9055 76.4337 36.7004C76.8481 36.4953 77.2044 36.1895 77.47 35.811C78.0765 34.896 78.3756 33.8115 78.324 32.715L78.32 32.716ZM95.031 32.616C95.1292 34.4043 94.5254 36.1603 93.348 37.51C92.8737 38.0275 92.2946 38.4378 91.6491 38.7137C91.0037 38.9896 90.3068 39.1247 89.605 39.11C88.9254 39.1658 88.2434 39.035 87.6326 38.7317C87.0218 38.4284 86.5054 37.9642 86.139 37.389V43.757H83.439V30.686C83.439 29.3893 83.4057 28.0597 83.339 26.697H85.711L85.862 28.621H85.913C86.3218 27.9951 86.8711 27.4734 87.5172 27.0973C88.1633 26.7213 88.8882 26.5013 89.6344 26.455C90.3805 26.4087 91.1271 26.5372 91.8147 26.8305C92.5023 27.1237 93.112 27.5735 93.595 28.144C94.597 29.413 95.1076 31.0008 95.033 32.616H95.031ZM92.282 32.716C92.3242 31.6824 92.0447 30.6611 91.482 29.793C91.2221 29.4132 90.8713 29.1044 90.4616 28.8948C90.0518 28.6852 89.5961 28.5815 89.136 28.593C88.4726 28.5933 87.8306 28.8277 87.323 29.255C86.7823 29.6964 86.4083 30.3092 86.263 30.992C86.1892 31.2599 86.1466 31.5353 86.136 31.813V33.837C86.1149 34.6579 86.4046 35.4565 86.947 36.073C87.2103 36.3713 87.5362 36.6077 87.9015 36.7654C88.2668 36.9231 88.6624 36.9981 89.06 36.985C89.5221 37.0036 89.9814 36.9059 90.3959 36.7007C90.8103 36.4956 91.1666 36.1897 91.432 35.811C92.0381 34.8959 92.3369 33.8114 92.285 32.715L92.282 32.716ZM110.642 34.116C110.663 34.7736 110.54 35.4278 110.28 36.0325C110.021 36.6372 109.633 37.1777 109.142 37.616C107.852 38.6645 106.215 39.1905 104.556 39.09C103.032 39.1628 101.52 38.7989 100.196 38.041L100.82 35.793C102 36.493 103.348 36.8562 104.72 36.843C105.566 36.8943 106.404 36.6516 107.092 36.156C107.368 35.9383 107.588 35.6589 107.736 35.3403C107.884 35.0218 107.955 34.673 107.943 34.322C107.95 34.0021 107.891 33.6842 107.771 33.3878C107.651 33.0913 107.471 32.8226 107.243 32.598C106.567 32.0091 105.776 31.5664 104.92 31.298C101.972 30.1987 100.498 28.5913 100.497 26.476C100.481 25.8278 100.613 25.1846 100.884 24.5953C101.155 24.0061 101.556 23.4864 102.058 23.076C103.23 22.1488 104.699 21.6784 106.192 21.752C107.512 21.7059 108.823 21.9804 110.014 22.552L109.337 24.752C108.341 24.2255 107.228 23.9593 106.102 23.978C105.297 23.93 104.503 24.1791 103.87 24.678C103.654 24.8685 103.482 25.1033 103.365 25.3665C103.248 25.6297 103.189 25.9151 103.193 26.203C103.187 26.5188 103.255 26.8316 103.389 27.1174C103.524 27.4031 103.722 27.6541 103.969 27.851C104.71 28.4117 105.536 28.8506 106.416 29.151C107.627 29.5765 108.722 30.2768 109.616 31.197C110.312 32.0068 110.68 33.0485 110.645 34.116H110.642ZM119.582 28.724H116.613V34.617C116.613 36.1157 117.138 36.8643 118.187 36.863C118.591 36.8726 118.994 36.8306 119.387 36.738L119.462 38.786C118.785 39.0076 118.074 39.1092 117.362 39.086C116.9 39.112 116.437 39.0383 116.006 38.8701C115.575 38.7019 115.185 38.443 114.862 38.111C114.172 37.1671 113.852 36.003 113.962 34.839V28.716H112.193V26.692H113.964V24.47L116.613 23.67V26.692H119.586L119.582 28.724ZM132.969 32.669C133.036 34.3494 132.464 35.9928 131.369 37.269C130.808 37.8828 130.119 38.3662 129.351 38.6855C128.583 39.0047 127.754 39.152 126.923 39.117C126.127 39.1524 125.332 39.0121 124.596 38.706C123.86 38.4 123.2 37.9356 122.663 37.346C121.586 36.1113 121.019 34.5133 121.077 32.876C121.009 31.1834 121.595 29.5297 122.713 28.257C123.274 27.6551 123.958 27.1824 124.72 26.8716C125.481 26.5607 126.301 26.4193 127.123 26.457C127.925 26.4245 128.724 26.5661 129.465 26.8722C130.207 27.1783 130.873 27.6415 131.418 28.23C132.483 29.4587 133.037 31.0478 132.968 32.672L132.969 32.669ZM130.169 32.731C130.197 31.728 129.948 30.7367 129.447 29.867C129.218 29.4236 128.87 29.0531 128.442 28.7975C128.013 28.5419 127.522 28.4115 127.023 28.421C126.517 28.4068 126.017 28.5348 125.58 28.7904C125.143 29.046 124.786 29.4189 124.55 29.867C124.044 30.7529 123.794 31.7615 123.826 32.781C123.797 33.7846 124.048 34.7765 124.55 35.646C124.789 36.0854 125.142 36.4519 125.572 36.7064C126.003 36.961 126.494 37.0941 126.994 37.0917C127.494 37.0892 127.984 36.9513 128.412 36.6925C128.84 36.4337 129.19 36.0637 129.424 35.622C129.94 34.7464 130.201 33.7441 130.178 32.728L130.169 32.731ZM141.736 29.072C141.456 29.0212 141.171 28.9961 140.886 28.997C140.459 28.9768 140.033 29.0648 139.648 29.2527C139.264 29.4406 138.933 29.7224 138.686 30.072C138.215 30.7813 137.979 31.6211 138.013 32.472V38.837H135.313V30.519C135.313 29.245 135.287 27.9713 135.235 26.698H137.584L137.684 29.02H137.759C138.015 28.2625 138.483 27.5945 139.108 27.096C139.671 26.6749 140.355 26.4469 141.058 26.446C141.284 26.4448 141.509 26.4611 141.732 26.495V29.068L141.736 29.072ZM153.799 32.195C153.805 32.6049 153.772 33.0145 153.699 33.418H145.607C145.589 33.9345 145.685 34.4486 145.888 34.9239C146.09 35.3991 146.396 35.8239 146.781 36.168C147.534 36.7565 148.473 37.0568 149.428 37.015C150.546 37.0301 151.656 36.8357 152.702 36.442L153.133 38.309C151.842 38.8366 150.457 39.0919 149.063 39.059C148.249 39.1038 147.435 38.9795 146.672 38.6939C145.908 38.4084 145.213 37.9678 144.628 37.4C144.078 36.801 143.652 36.0984 143.375 35.3332C143.099 34.5681 142.977 33.7556 143.018 32.943C142.959 31.29 143.49 29.67 144.518 28.374C145.023 27.7393 145.67 27.2323 146.408 26.8941C147.145 26.5559 147.951 26.3959 148.762 26.427C149.536 26.384 150.307 26.5405 151.003 26.8814C151.699 27.2224 152.296 27.7363 152.736 28.374C153.479 29.5052 153.853 30.8386 153.807 32.191L153.799 32.195ZM151.227 31.495C151.263 30.7672 151.081 30.0452 150.703 29.422C150.481 29.0571 150.164 28.7596 149.785 28.5612C149.407 28.3629 148.982 28.2712 148.555 28.296C148.134 28.2885 147.718 28.385 147.344 28.5769C146.969 28.7688 146.648 29.0501 146.408 29.396C145.948 30.0059 145.67 30.7343 145.608 31.496H151.225L151.227 31.495Z" fill="white"/>
<path d="M56.464 15.939C55.8163 15.9421 55.169 15.9087 54.525 15.839V7.70196C55.2804 7.58531 56.0437 7.5278 56.808 7.52996C59.901 7.52996 61.326 9.05196 61.326 11.53C61.326 14.393 59.643 15.939 56.464 15.939ZM56.917 8.57396C56.5591 8.56723 56.2013 8.59604 55.849 8.65996V14.844C56.1479 14.8756 56.4485 14.888 56.749 14.881C58.776 14.881 59.929 13.727 59.929 11.567C59.9766 11.1608 59.9313 10.7492 59.7966 10.3631C59.6618 9.97699 59.4411 9.62655 59.1511 9.33822C58.8612 9.04988 58.5095 8.83118 58.1226 8.69861C57.7358 8.56605 57.3239 8.52308 56.918 8.57296L56.917 8.57396ZM65.765 16.001C65.3693 16.007 64.9766 15.9302 64.6123 15.7755C64.248 15.6209 63.92 15.3917 63.6495 15.1028C63.379 14.8139 63.1718 14.4717 63.0414 14.098C62.9109 13.7243 62.86 13.3275 62.892 12.933C62.8568 12.5254 62.9081 12.1149 63.0425 11.7285C63.1769 11.3421 63.3914 10.9884 63.672 10.6907C63.9526 10.3929 64.2929 10.1578 64.6706 10.0007C65.0484 9.84356 65.455 9.76801 65.864 9.77896C66.2597 9.76965 66.6529 9.84383 67.0181 9.99666C67.3832 10.1495 67.712 10.3776 67.9831 10.666C68.2541 10.9544 68.4614 11.2967 68.5913 11.6706C68.7212 12.0445 68.7708 12.4416 68.737 12.836C68.7711 13.2439 68.7192 13.6545 68.5845 14.0411C68.4499 14.4277 68.2355 14.7816 67.9553 15.0801C67.6751 15.3786 67.3354 15.6149 66.9581 15.7737C66.5808 15.9325 66.1743 16.0102 65.765 16.002V16.001ZM65.818 10.744C64.86 10.744 64.247 11.644 64.247 12.892C64.247 14.12 64.873 15.016 65.806 15.016C66.739 15.016 67.365 14.059 67.365 12.867C67.361 11.655 66.748 10.744 65.818 10.744ZM78.68 9.89796L76.814 15.863H75.598L74.825 13.273C74.633 12.6394 74.4731 11.9966 74.346 11.347H74.318C74.2083 12.0003 74.0485 12.6442 73.84 13.273L73.018 15.863H71.79L70.034 9.89796H71.397L72.073 12.734C72.2323 13.4093 72.3657 14.0476 72.473 14.649H72.498C72.598 14.149 72.755 13.52 72.989 12.749L73.837 9.90196H74.917L75.728 12.688C75.928 13.363 76.083 14.026 76.207 14.652H76.242C76.337 13.9901 76.4705 13.3343 76.642 12.688L77.367 9.90196H78.667L78.68 9.89796ZM85.549 15.863H84.218V12.444C84.218 11.389 83.818 10.86 83.018 10.86C82.8342 10.8664 82.6536 10.9096 82.4868 10.987C82.32 11.0645 82.1703 11.1745 82.0468 11.3107C81.9232 11.4469 81.8281 11.6064 81.7672 11.7799C81.7062 11.9534 81.6807 12.1374 81.692 12.321V15.869H80.366V11.609C80.366 11.082 80.353 10.516 80.317 9.90296H81.483L81.545 10.824H81.582C81.7768 10.4985 82.0545 10.2305 82.3867 10.0474C82.7189 9.86435 83.0938 9.77275 83.473 9.78196C84.725 9.78196 85.548 10.739 85.548 12.298V15.87L85.549 15.863ZM89.205 15.863H87.878V7.16296H89.205V15.863ZM94.039 15.998C93.6433 16.0038 93.2507 15.927 92.8865 15.7722C92.5222 15.6175 92.1944 15.3884 91.9238 15.0995C91.6533 14.8106 91.4462 14.4684 91.3157 14.0948C91.1852 13.7212 91.1342 13.3244 91.166 12.93C91.1308 12.5225 91.182 12.1123 91.3163 11.726C91.4506 11.3397 91.665 10.9862 91.9453 10.6884C92.2257 10.3907 92.5657 10.1555 92.9433 9.99831C93.3208 9.84106 93.7272 9.7653 94.136 9.77596C94.5318 9.76649 94.9251 9.84056 95.2903 9.99335C95.6554 10.1461 95.9843 10.3742 96.2554 10.6627C96.5265 10.9511 96.7338 11.2935 96.8636 11.6675C96.9935 12.0414 97.043 12.4386 97.009 12.833C97.0433 13.2408 96.9915 13.6512 96.857 14.0377C96.7225 14.4243 96.5083 14.7782 96.2283 15.0767C95.9484 15.3752 95.6088 15.6115 95.2316 15.7704C94.8545 15.9292 94.4482 16.0071 94.039 15.999V15.998ZM94.088 10.744C93.13 10.744 92.517 11.644 92.517 12.892C92.517 14.12 93.145 15.016 94.074 15.016C95.003 15.016 95.633 14.059 95.633 12.867C95.633 11.653 95.022 10.745 94.088 10.745V10.744ZM102.237 15.863L102.137 15.176H102.102C101.902 15.4465 101.637 15.6632 101.333 15.8066C101.028 15.95 100.693 16.0158 100.357 15.998C100.12 16.0107 99.8823 15.9746 99.6595 15.8918C99.4367 15.809 99.2333 15.6813 99.0619 15.5167C98.8905 15.352 98.7548 15.1539 98.6631 14.9347C98.5714 14.7154 98.5258 14.4796 98.529 14.242C98.529 12.77 99.805 12.008 102.016 12.008V11.898C102.016 11.113 101.6 10.719 100.777 10.719C100.225 10.7092 99.6824 10.8634 99.218 11.162L98.949 10.291C99.5695 9.92961 100.279 9.75075 100.997 9.77496C102.556 9.77496 103.343 10.597 103.343 12.243V14.443C103.334 14.9192 103.363 15.3953 103.429 15.867L102.237 15.863ZM102.055 12.892C100.582 12.892 99.844 13.249 99.844 14.092C99.8308 14.2157 99.845 14.3408 99.8858 14.4584C99.9265 14.576 99.9927 14.6831 100.08 14.7722C100.167 14.8612 100.272 14.93 100.389 14.9735C100.505 15.017 100.63 15.0342 100.754 15.024C101.087 15.0321 101.409 14.9096 101.652 14.6826C101.895 14.4555 102.039 14.1422 102.054 13.81L102.055 12.892ZM109.785 15.863L109.718 14.908H109.681C109.504 15.2578 109.228 15.5479 108.888 15.7422C108.547 15.9365 108.157 16.0265 107.766 16.001C106.328 16.001 105.266 14.736 105.266 12.957C105.266 11.091 106.366 9.77696 107.878 9.77696C108.206 9.74441 108.537 9.80288 108.833 9.94595C109.13 10.089 109.382 10.3112 109.561 10.588H109.588V7.16296H110.918V14.257C110.918 14.834 110.932 15.374 110.967 15.865H109.787L109.785 15.863ZM109.585 12.353C109.599 12.1585 109.574 11.9631 109.51 11.7788C109.447 11.5944 109.347 11.4248 109.216 11.2802C109.085 11.1356 108.926 11.019 108.749 10.9375C108.572 10.856 108.38 10.8113 108.185 10.806C107.202 10.806 106.601 11.677 106.601 12.906C106.601 14.106 107.225 14.932 108.158 14.932C108.356 14.9236 108.551 14.8757 108.73 14.7911C108.91 14.7065 109.07 14.5869 109.203 14.4394C109.335 14.2918 109.437 14.1193 109.502 13.9318C109.567 13.7444 109.594 13.5459 109.581 13.348V12.354L109.585 12.353ZM119.326 15.998C118.93 16.0039 118.538 15.927 118.174 15.7722C117.809 15.6175 117.482 15.3883 117.211 15.0995C116.941 14.8106 116.734 14.4683 116.603 14.0947C116.473 13.7211 116.422 13.3244 116.454 12.93C116.419 12.5225 116.47 12.1123 116.604 11.726C116.739 11.3397 116.953 10.9862 117.233 10.6884C117.514 10.3907 117.854 10.1555 118.231 9.99831C118.609 9.84106 119.015 9.7653 119.424 9.77596C119.82 9.76649 120.213 9.84056 120.578 9.99335C120.943 10.1461 121.272 10.3742 121.543 10.6627C121.815 10.9511 122.022 11.2935 122.152 11.6675C122.281 12.0414 122.331 12.4386 122.297 12.833C122.331 13.241 122.28 13.6517 122.145 14.0384C122.011 14.4251 121.796 14.7793 121.516 15.0778C121.236 15.3763 120.896 15.6126 120.518 15.7713C120.141 15.93 119.734 16.0076 119.325 15.999L119.326 15.998ZM119.375 10.744C118.419 10.744 117.805 11.644 117.805 12.892C117.805 14.12 118.431 15.016 119.362 15.016C120.293 15.016 120.921 14.059 120.921 12.867C120.926 11.655 120.312 10.744 119.377 10.744H119.375ZM129.427 15.863H128.1V12.444C128.1 11.389 127.7 10.86 126.9 10.86C126.716 10.8664 126.536 10.9096 126.369 10.9871C126.202 11.0645 126.053 11.1745 125.929 11.3107C125.806 11.4469 125.711 11.6065 125.65 11.78C125.589 11.9535 125.564 12.1375 125.575 12.321V15.869H124.248V11.609C124.248 11.082 124.235 10.516 124.199 9.90296H125.365L125.427 10.824H125.464C125.659 10.4984 125.936 10.2302 126.268 10.047C126.6 9.86372 126.975 9.77192 127.354 9.78096C128.606 9.78096 129.43 10.738 129.43 12.297L129.427 15.863ZM138.347 10.892H136.888V13.792C136.888 14.529 137.144 14.897 137.66 14.897C137.858 14.8986 138.055 14.8778 138.248 14.835L138.285 15.842C137.954 15.9521 137.605 16.0022 137.256 15.99C136.211 15.99 135.586 15.413 135.586 13.903V10.894H134.718V9.89996H135.588V8.80696L136.888 8.41396V9.89896H138.347V10.892ZM145.366 15.863H144.041V12.463C144.041 11.395 143.641 10.855 142.841 10.855C142.658 10.8505 142.476 10.8846 142.308 10.9552C142.139 11.0257 141.987 11.131 141.862 11.2643C141.737 11.3976 141.641 11.5557 141.581 11.7285C141.521 11.9013 141.498 12.0848 141.514 12.267V15.867H140.189V7.16696H141.518V10.744H141.545C141.73 10.437 141.995 10.1852 142.31 10.0147C142.625 9.84412 142.981 9.76102 143.339 9.77396C144.602 9.77396 145.373 10.756 145.373 12.315V15.863H145.366ZM152.557 13.199H148.578C148.569 13.4432 148.612 13.6866 148.705 13.9127C148.798 14.1388 148.938 14.3424 149.116 14.5098C149.294 14.6772 149.506 14.8045 149.738 14.8832C149.969 14.9619 150.215 14.9901 150.458 14.966C151.007 14.9712 151.552 14.8756 152.066 14.684L152.272 15.605C151.638 15.8639 150.957 15.9891 150.272 15.973C149.871 16.0037 149.468 15.9468 149.091 15.8061C148.715 15.6654 148.373 15.4443 148.09 15.1582C147.808 14.8721 147.591 14.5279 147.455 14.1495C147.318 13.7711 147.266 13.3676 147.302 12.967C147.262 12.5686 147.305 12.1664 147.428 11.7854C147.551 11.4045 147.751 11.0529 148.016 10.7526C148.28 10.4523 148.604 10.2098 148.967 10.0403C149.329 9.87068 149.723 9.77764 150.123 9.76696C151.647 9.76696 152.604 10.896 152.604 12.603C152.612 12.8041 152.597 13.0055 152.558 13.203L152.557 13.199ZM151.341 12.254C151.341 11.333 150.877 10.683 150.029 10.683C149.634 10.7137 149.265 10.8927 148.996 11.184C148.727 11.4754 148.578 11.8575 148.579 12.254H151.341Z" fill="white"/>
</svg>
