<svg width="169" height="30" viewBox="0 0 169 30" fill="none" xmlns="http://www.w3.org/2000/svg">
<path d="M160.988 9.74249H163.704L163.926 11.9834H163.954C164.648 10.9575 166.339 9.64367 168.308 9.53372V12.4565C165.44 13.0238 164.124 14.9493 164.124 16.6965V23.6603H160.988V9.74249ZM146.552 16.7442V16.6871C146.552 12.4067 148.61 9.32496 152.866 9.32496C156.813 9.32496 158.645 11.6364 158.645 16.4874C158.645 17.001 158.609 17.7101 158.554 18.2324H149.842C150.067 20.1928 151.196 21.3639 153.512 21.3639C154.978 21.3639 156.355 21.2251 157.632 21.0559V23.7145C156.198 23.9422 154.981 24.0779 153.43 24.0779C148.92 24.0779 146.552 21.795 146.552 16.7442ZM149.794 15.8663H155.459C155.459 13.6886 154.896 11.9693 152.782 11.9693C150.583 11.9693 149.85 13.8032 149.794 15.8663ZM132.186 9.74249H134.915C134.915 9.74249 135.042 11.1241 135.098 11.6214H135.134C135.89 10.4217 137.478 9.32496 139.398 9.32496C142.64 9.32496 144.249 11.073 144.249 14.6185V23.6603H141.113V15.2727C141.113 13.0096 140.253 12.123 138.562 12.2435C137.03 12.3528 135.322 14.1247 135.322 16.3406V23.6603H132.186V9.74249ZM117.407 9.74249H120.136C120.136 9.74249 120.263 11.1241 120.319 11.6214H120.356C121.112 10.4217 122.699 9.32496 124.619 9.32496C127.861 9.32496 129.47 11.073 129.47 14.6185V23.6603H126.334V15.2727C126.334 13.0096 125.474 12.123 123.783 12.2435C122.251 12.3528 120.543 14.1247 120.543 16.3406V23.6603H117.407V9.74249ZM105.053 9.47318C106.416 9.35906 107.893 9.32496 109.321 9.32496C112.683 9.32496 114.689 10.6406 114.689 14.3588V23.6603H111.869L111.729 22.2681H111.692C110.725 23.3228 109.321 23.9387 107.522 23.9387C105.14 23.9387 103.247 22.3766 103.247 19.2811C103.247 16.4022 105.618 13.7214 111.553 14.9965V14.1586C111.553 12.4996 110.592 12.0362 108.699 12.0362C107.537 12.0362 106.552 12.1158 105.053 12.2456V9.47318ZM111.553 17.1988C109.038 16.5512 106.524 17.3469 106.524 19.3144C106.524 20.6194 107.379 21.3862 108.655 21.3288C109.66 21.2836 110.767 20.832 111.553 20.1275V17.1988H111.553ZM100.883 4.17535V23.6603H97.7474V4.54348L100.883 4.17535ZM82.8997 9.74249H85.5485L85.719 11.2498H85.7694C86.689 10.1236 88.2281 9.32496 90.0042 9.32496C93.5285 9.32496 95.4173 11.9793 95.4173 16.4888V16.6315C95.4173 20.9699 93.5283 24.081 89.5813 24.081C88.1999 24.081 86.8467 23.5386 86.029 22.9108V29.0187H82.8997V9.74249ZM86.0291 13.8185V20.2278C86.6776 20.7416 87.7207 21.1982 88.7356 21.1982C91.3857 21.1982 92.1469 19.1147 92.1469 16.66C92.1469 14.4338 91.7241 12.276 89.1584 12.276C87.9181 12.276 86.7187 13.0147 86.0291 13.8184V13.8185ZM73.3229 16.7014C73.3316 19.7421 74.6326 21.3639 77.2228 21.3639C78.3171 21.3639 79.4295 21.2264 80.4391 21.089V23.6603C79.6099 23.8285 78.2357 24.0083 76.8259 24.0083C72.9632 24.0083 70.0571 21.8559 70.0454 16.7014C70.0571 11.5469 72.9632 9.39455 76.8259 9.39455C78.2357 9.39455 79.6098 9.5743 80.439 9.74249V12.3138C79.4294 12.1764 78.3171 12.0389 77.2227 12.0389C74.6326 12.0389 73.3316 13.6606 73.3229 16.7014ZM55.129 16.7727V16.6301C55.129 11.9787 57.243 9.32496 61.612 9.32496C65.9528 9.32496 68.0668 11.9787 68.0668 16.6301V16.7727C68.0668 21.4241 65.9528 24.0779 61.612 24.0779C57.2429 24.0779 55.129 21.4242 55.129 16.7728V16.7727ZM61.6047 11.9693C59.3844 11.9693 58.3597 13.4945 58.3597 16.6808C58.3597 19.8672 59.3844 21.3639 61.6047 21.3639C63.825 21.3639 64.8212 19.8719 64.8212 16.6808C64.8212 13.4897 63.825 11.9693 61.6047 11.9693ZM38.4941 23.6603V4.17535H43.3282C50.0644 4.17535 53.1992 6.22336 53.1992 13.9178C53.1992 21.6123 50.0645 23.6603 43.3282 23.6603H38.4941ZM49.5987 13.9178C49.5987 9.5372 48.7205 7.32649 44.0782 7.32649H41.9266V20.5093H44.0782C48.7205 20.5093 49.5987 18.2985 49.5987 13.9178ZM16.0116 22.4972C16.7066 20.7722 18.6617 18.3583 20.656 17.113L25.0715 24.509L20.5488 27.8357L16.0116 22.4972ZM9.48913 27.8277L3.26354 23.774C7.977 14.8546 16.7846 8.50283 27.1367 7.31946L28.8705 12.7268C20.3379 14.4283 13.2173 20.1301 9.48913 27.8277ZM10.8478 9.4697L11.6346 0H17.227L17.9375 8.56379C14.7287 9.67791 12.8416 10.568 10.6796 11.9135C9.08343 12.9044 7.63186 14.0639 6.33317 15.3938L0 12.687L1.72632 7.29525L10.8478 9.4697Z" fill="#CBCEDC"/>
</svg>
