<svg width="168" height="48" viewBox="0 0 168 48" fill="none" xmlns="http://www.w3.org/2000/svg">
<path d="M161.778 47.9997H6.2225C5.40315 48.0075 4.59043 47.8576 3.83189 47.5588C3.07335 47.26 2.38422 46.8183 1.80482 46.2596C1.22543 45.701 0.76741 45.0364 0.457561 44.305C0.147713 43.5736 -0.00774098 42.7899 0.000296485 41.9998V6.00021C-0.00774098 5.21014 0.147713 4.42645 0.457561 3.695C0.76741 2.96356 1.22543 2.29905 1.80482 1.74035C2.38422 1.18166 3.07335 0.739996 3.83189 0.441216C4.59043 0.142436 5.40315 -0.00746445 6.2225 0.000285894H161.778C162.597 -0.00746445 163.41 0.142436 164.168 0.441216C164.927 0.739996 165.616 1.18166 166.195 1.74035C166.775 2.29905 167.233 2.96356 167.542 3.695C167.852 4.42645 168.008 5.21014 168 6.00021V41.9998C168.008 42.7899 167.852 43.5736 167.542 44.305C167.233 45.0364 166.775 45.701 166.195 46.2596C165.616 46.8183 164.927 47.26 164.168 47.5588C163.41 47.8576 162.597 48.0075 161.778 47.9997Z" fill="black"/>
<path d="M56.8083 12.2533C56.837 12.6921 56.7774 13.1322 56.6329 13.5475C56.4884 13.9628 56.2621 14.345 55.9673 14.6713C55.4443 15.1998 54.7756 15.5605 54.0467 15.7072C53.3177 15.854 52.5616 15.7802 51.8748 15.4953C51.1879 15.2104 50.6016 14.7272 50.1906 14.1076C49.7796 13.4879 49.5626 12.7598 49.5673 12.0163C49.5625 11.5235 49.656 11.0346 49.8422 10.5784C50.0285 10.1221 50.3038 9.70752 50.6521 9.35886C51.0004 9.0102 51.4147 8.73444 51.8707 8.5477C52.3268 8.36096 52.8155 8.26698 53.3083 8.27126C53.8127 8.27659 54.3088 8.4006 54.7563 8.63326C55.1869 8.81347 55.5618 9.10514 55.8423 9.47826L55.2423 10.0783C55.0139 9.79045 54.7185 9.56295 54.3819 9.41566C54.0453 9.26836 53.6777 9.20573 53.3113 9.23326C52.9464 9.21787 52.5827 9.28599 52.2481 9.43243C51.9135 9.57886 51.6167 9.79975 51.3803 10.0783C51.0901 10.3315 50.8628 10.6486 50.7161 11.0047C50.5695 11.3608 50.5076 11.7461 50.5353 12.1303C50.5076 12.5144 50.5695 12.8997 50.7161 13.2558C50.8628 13.6119 51.0901 13.929 51.3803 14.1823C51.9059 14.6803 52.5889 14.9792 53.3113 15.0273C53.6941 15.0433 54.0759 14.9761 54.4301 14.8302C54.7844 14.6843 55.1028 14.4632 55.3633 14.1823C55.5557 13.9937 55.708 13.7683 55.8111 13.5195C55.9142 13.2707 55.966 13.0036 55.9633 12.7343H53.3083V11.7713H56.8083V12.2543V12.2533ZM62.3593 9.23626H59.1013V11.5293H62.1183V12.3713H59.1013V14.6713H62.3593V15.6363H58.1353V8.39226H62.3593V9.23626ZM66.3413 15.6363H65.3763V9.23626H63.3243V8.39226H68.3923V9.23726H66.3413V15.6363ZM71.8923 15.6363V8.39226H72.8573V15.6333L71.8923 15.6363ZM76.9603 15.6363H75.9953V9.23626H73.9443V8.39226H78.8923V9.23726H76.8403V15.6373L76.9603 15.6363ZM88.4253 14.6713C87.9023 15.1998 87.2336 15.5605 86.5047 15.7072C85.7757 15.854 85.0196 15.7802 84.3328 15.4953C83.6459 15.2104 83.0596 14.7272 82.6486 14.1076C82.2376 13.4879 82.0206 12.7598 82.0253 12.0163C82.0253 11.0241 82.4195 10.0725 83.121 9.37097C83.8226 8.6694 84.7741 8.27526 85.7663 8.27526C86.7585 8.27526 87.71 8.6694 88.4116 9.37097C89.1132 10.0725 89.5073 11.0241 89.5073 12.0163C89.5216 12.5097 89.4327 13.0007 89.2464 13.4579C89.0601 13.9151 88.7805 14.3283 88.4253 14.6713ZM83.8393 14.0713C84.3512 14.5895 85.0423 14.8919 85.7703 14.9163C86.1353 14.9316 86.4989 14.8635 86.8335 14.7171C87.1682 14.5707 87.465 14.3498 87.7013 14.0713C88.2429 13.5257 88.5466 12.788 88.5463 12.0193C88.574 11.6351 88.5121 11.2498 88.3655 10.8937C88.2188 10.5376 87.9915 10.2205 87.7013 9.96726C87.1896 9.4461 86.4972 9.14144 85.7673 9.11626C85.4024 9.10087 85.0387 9.16899 84.7041 9.31543C84.3694 9.46186 84.0727 9.68275 83.8363 9.96126C83.2947 10.5069 82.991 11.2445 82.9913 12.0133C82.9642 12.3975 83.0268 12.7828 83.1742 13.1388C83.3215 13.4947 83.5496 13.8115 83.8403 14.0643L83.8393 14.0713ZM90.8393 15.6403V8.39226H91.9253L95.4253 14.0643V8.39226H96.3903V15.6333H95.4253L91.6843 9.71926V15.6323H90.8393V15.6403Z" fill="white"/>
<path d="M81.2662 26.0373C80.5806 26.022 79.899 26.1458 79.2625 26.4011C78.6261 26.6565 78.0479 27.0381 77.563 27.523C77.0781 28.008 76.6964 28.5861 76.441 29.2226C76.1857 29.8591 76.0619 30.5407 76.0772 31.2263C76.0722 31.9091 76.2029 32.5862 76.4619 33.218C76.7209 33.8498 77.1029 34.4239 77.5858 34.9067C78.0686 35.3896 78.6427 35.7716 79.2745 36.0306C79.9064 36.2896 80.5834 36.4203 81.2662 36.4153C81.9518 36.4306 82.6335 36.3068 83.2699 36.0515C83.9064 35.7961 84.4846 35.4145 84.9695 34.9295C85.4544 34.4446 85.8361 33.8665 86.0914 33.23C86.3468 32.5935 86.4705 31.9119 86.4552 31.2263C86.4807 30.538 86.364 29.8519 86.1122 29.2108C85.8605 28.5697 85.4792 27.9874 84.9921 27.5004C84.5051 27.0133 83.9229 26.632 83.2818 26.3803C82.6407 26.1285 81.9545 26.0118 81.2662 26.0373ZM81.2662 34.2433C80.8689 34.2305 80.478 34.1388 80.1164 33.9736C79.7548 33.8084 79.4296 33.573 79.1598 33.281C78.8899 32.989 78.6808 32.6463 78.5446 32.2728C78.4084 31.8993 78.3477 31.5024 78.3662 31.1053C78.3477 30.7081 78.4084 30.3113 78.5446 29.9378C78.6808 29.5643 78.8899 29.2216 79.1598 28.9296C79.4296 28.6376 79.7548 28.4022 80.1164 28.237C80.478 28.0718 80.8689 27.9801 81.2662 27.9673C81.6669 27.9694 82.0629 28.0538 82.4296 28.2153C82.7963 28.3769 83.1259 28.6121 83.3978 28.9064C83.6698 29.2007 83.8783 29.5477 84.0105 29.926C84.1427 30.3043 84.1957 30.7057 84.1662 31.1053C84.1847 31.5024 84.1241 31.8993 83.9879 32.2728C83.8516 32.6463 83.6425 32.989 83.3727 33.281C83.1029 33.573 82.7777 33.8084 82.4161 33.9736C82.0544 34.1388 81.6636 34.2305 81.2662 34.2433ZM70.0432 26.0373C69.3576 26.022 68.676 26.1458 68.0395 26.4011C67.4031 26.6565 66.8249 27.0381 66.34 27.523C65.8551 28.008 65.4734 28.5861 65.218 29.2226C64.9627 29.8591 64.8389 30.5407 64.8542 31.2263C64.8492 31.9091 64.9799 32.5862 65.2389 33.218C65.4979 33.8498 65.8799 34.4239 66.3628 34.9067C66.8456 35.3896 67.4197 35.7716 68.0515 36.0306C68.6834 36.2896 69.3604 36.4203 70.0432 36.4153C70.7288 36.4306 71.4105 36.3068 72.0469 36.0515C72.6834 35.7961 73.2615 35.4145 73.7465 34.9295C74.2314 34.4446 74.6131 33.8665 74.8684 33.23C75.1238 32.5935 75.2475 31.9119 75.2322 31.2263C75.2577 30.538 75.141 29.8519 74.8892 29.2108C74.6375 28.5697 74.2562 27.9874 73.7691 27.5004C73.2821 27.0133 72.6999 26.632 72.0588 26.3803C71.4177 26.1285 70.7315 26.0118 70.0432 26.0373ZM70.0432 34.2433C69.6459 34.2305 69.255 34.1388 68.8934 33.9736C68.5318 33.8084 68.2066 33.573 67.9368 33.281C67.6669 32.989 67.4578 32.6463 67.3216 32.2728C67.1854 31.8993 67.1247 31.5024 67.1432 31.1053C67.1247 30.7081 67.1854 30.3113 67.3216 29.9378C67.4578 29.5643 67.6669 29.2216 67.9368 28.9296C68.2066 28.6376 68.5318 28.4022 68.8934 28.237C69.255 28.0718 69.6459 27.9801 70.0432 27.9673C70.4439 27.9694 70.8399 28.0538 71.2066 28.2153C71.5733 28.3769 71.9029 28.6121 72.1748 28.9064C72.4468 29.2007 72.6553 29.5477 72.7875 29.926C72.9197 30.3043 72.9727 30.7057 72.9432 31.1053C72.9617 31.5024 72.9011 31.8993 72.7649 32.2728C72.6286 32.6463 72.4195 32.989 72.1497 33.281C71.8799 33.573 71.5547 33.8084 71.1931 33.9736C70.8314 34.1388 70.4406 34.2305 70.0432 34.2433ZM56.6432 27.6063V29.7783H61.8322C61.7575 30.814 61.3317 31.7933 60.6252 32.5543C60.1056 33.0762 59.4835 33.4851 58.7983 33.7551C58.113 34.0251 57.3793 34.1505 56.6432 34.1233C55.886 34.1308 55.1351 33.9852 54.4356 33.6952C53.736 33.4051 53.1024 32.9767 52.5726 32.4356C52.0428 31.8946 51.6279 31.252 51.3527 30.5465C51.0775 29.841 50.9477 29.0872 50.9712 28.3303C50.958 27.5761 51.0947 26.8267 51.3736 26.1258C51.6524 25.4249 52.0678 24.7864 52.5955 24.2474C53.1233 23.7084 53.7529 23.2797 54.4477 22.9861C55.1426 22.6925 55.8889 22.54 56.6432 22.5373C58.1186 22.5515 59.5367 23.1103 60.6252 24.1063L62.1942 22.5373C60.7393 21.1314 58.7914 20.3516 56.7682 20.3653C54.649 20.3794 52.6187 21.2193 51.109 22.7067C49.5992 24.194 48.729 26.2115 48.6832 28.3303C48.729 30.4491 49.5992 32.4666 51.109 33.9539C52.6187 35.4412 54.649 36.2812 56.7682 36.2953C57.8061 36.3529 58.8437 36.1767 59.8044 35.7799C60.7651 35.383 61.6245 34.7755 62.3192 34.0023C63.593 32.6255 64.2849 30.8095 64.2502 28.9343C64.2756 28.4884 64.2348 28.0412 64.1292 27.6073H56.6482L56.6432 27.6063ZM111.431 29.2953C111.135 28.3687 110.557 27.5573 109.779 26.9735C109 26.3898 108.06 26.0626 107.087 26.0373C106.423 26.0403 105.767 26.1793 105.158 26.4459C104.55 26.7124 104.003 27.1008 103.551 27.5871C103.098 28.0733 102.75 28.6471 102.529 29.273C102.307 29.8989 102.215 30.5637 102.26 31.2263C102.242 31.903 102.359 32.5766 102.606 33.2069C102.853 33.8373 103.224 34.4116 103.697 34.8956C104.171 35.3797 104.736 35.7637 105.361 36.0248C105.986 36.2858 106.656 36.4186 107.333 36.4153C108.174 36.4233 109.003 36.217 109.742 35.8159C110.481 35.4147 111.106 34.8318 111.557 34.1223L109.867 32.9153C109.608 33.3566 109.237 33.7225 108.793 33.9768C108.348 34.2311 107.845 34.365 107.333 34.3653C106.801 34.3925 106.274 34.2569 105.821 33.9766C105.368 33.6962 105.012 33.2845 104.799 32.7963L111.678 29.8963L111.437 29.2963L111.431 29.2953ZM104.431 30.9843C104.406 30.2367 104.667 29.5077 105.162 28.9465C105.656 28.3853 106.346 28.0343 107.091 27.9653C107.482 27.9523 107.868 28.0467 108.209 28.2382C108.549 28.4297 108.831 28.7109 109.022 29.0513L104.436 30.9853L104.431 30.9843ZM98.7592 35.9323H101.052V20.8483H98.7642L98.7592 35.9323ZM95.1392 27.1223C94.4094 26.3694 93.4116 25.9355 92.3632 25.9153C91.0289 25.9763 89.7696 26.55 88.8478 27.5167C87.926 28.4834 87.4128 29.7685 87.4152 31.1043C87.4062 31.7622 87.5272 32.4155 87.7712 33.0266C88.0152 33.6377 88.3774 34.1947 88.8371 34.6655C89.2968 35.1363 89.8449 35.5118 90.45 35.7703C91.0551 36.0289 91.7052 36.1655 92.3632 36.1723C92.8677 36.1769 93.3672 36.0713 93.8266 35.8628C94.2861 35.6543 94.6945 35.348 95.0232 34.9653H95.1442V35.6893C95.1442 37.6203 94.0582 38.7063 92.3682 38.7063C91.81 38.706 91.2658 38.5314 90.8115 38.2069C90.3572 37.8824 90.0156 37.4243 89.8342 36.8963L87.9032 37.7413C88.2878 38.6383 88.9275 39.4025 89.7429 39.9389C90.5582 40.4753 91.5133 40.7602 92.4892 40.7583C95.1442 40.7583 97.3162 39.1893 97.3162 35.4483V26.2783H95.1442V27.1233L95.1392 27.1223ZM92.4842 34.2423C92.0869 34.2295 91.696 34.1378 91.3344 33.9726C90.9728 33.8074 90.6476 33.572 90.3778 33.28C90.1079 32.988 89.8988 32.6453 89.7626 32.2718C89.6264 31.8983 89.5657 31.5014 89.5842 31.1043C89.5657 30.7071 89.6264 30.3103 89.7626 29.9368C89.8988 29.5633 90.1079 29.2206 90.3778 28.9286C90.6476 28.6366 90.9728 28.4012 91.3344 28.236C91.696 28.0708 92.0869 27.9791 92.4842 27.9663C92.8754 27.9817 93.2594 28.0761 93.6131 28.2439C93.9668 28.4117 94.2829 28.6493 94.5423 28.9426C94.8016 29.2358 94.999 29.5785 95.1224 29.95C95.2458 30.3215 95.2927 30.7142 95.2602 31.1043C95.2928 31.4941 95.2462 31.8865 95.1231 32.2578C95.0001 32.6291 94.8033 32.9717 94.5444 33.2649C94.2855 33.5582 93.97 33.796 93.6168 33.9642C93.2636 34.1323 92.8801 34.2272 92.4892 34.2433L92.4842 34.2423ZM121.929 20.8423H116.498V35.9323H118.791V30.2653H121.929C122.566 30.2961 123.203 30.1972 123.801 29.9746C124.399 29.752 124.945 29.4103 125.407 28.9702C125.869 28.5301 126.237 28.0008 126.488 27.4144C126.739 26.8281 126.869 26.1967 126.869 25.5588C126.869 24.9208 126.739 24.2895 126.488 23.7031C126.237 23.1167 125.869 22.5875 125.407 22.1474C124.945 21.7073 124.399 21.3656 123.801 21.143C123.203 20.9204 122.566 20.8215 121.929 20.8523V20.8423ZM122.05 28.0833H118.792V22.8993H122.05C122.734 22.8976 123.392 23.1603 123.887 23.6326C124.382 24.1048 124.675 24.75 124.705 25.4333C124.679 26.1282 124.391 26.7875 123.9 27.2797C123.409 27.7718 122.75 28.0606 122.055 28.0883L122.05 28.0833ZM135.928 25.9113C135.11 25.846 134.292 26.0301 133.581 26.4395C132.87 26.8489 132.3 27.4642 131.946 28.2043L133.998 29.0493C134.199 28.6893 134.499 28.3952 134.863 28.2025C135.228 28.0097 135.64 27.9267 136.05 27.9633C136.622 27.9202 137.189 28.0955 137.637 28.4538C138.085 28.8121 138.381 29.3268 138.464 29.8943V30.0153C137.762 29.6262 136.974 29.4199 136.171 29.4153C133.999 29.4153 131.827 30.6223 131.827 32.7943C131.847 33.2631 131.96 33.7232 132.16 34.1479C132.359 34.5726 132.641 34.9533 132.99 35.2678C133.338 35.5823 133.745 35.8244 134.188 35.9798C134.631 36.1353 135.1 36.2011 135.568 36.1733C136.134 36.1924 136.695 36.07 137.202 35.8171C137.708 35.5643 138.144 35.189 138.468 34.7253H138.589V35.9323H140.761V30.1403C140.673 28.9431 140.117 27.8288 139.214 27.0383C138.311 26.2478 137.132 25.8447 135.934 25.9163L135.928 25.9113ZM135.687 34.2383C134.963 34.2383 133.877 33.8763 133.877 32.9113C133.877 31.7043 135.204 31.3423 136.291 31.3423C137.003 31.3447 137.705 31.5099 138.343 31.8253C138.252 32.4741 137.938 33.0708 137.454 33.5123C136.97 33.9538 136.347 34.2123 135.692 34.2433L135.687 34.2383ZM148.358 26.2733L145.824 32.7903H145.703L143.048 26.2733H140.634L144.616 35.4453L142.323 40.5133H144.616L150.771 26.2733H148.363H148.358ZM128.084 35.9273H130.383V20.8483H128.09L128.084 35.9273Z" fill="white"/>
<path d="M12.5513 8.91528C12.1789 9.3951 12.0058 10.0001 12.0683 10.6043V37.2743C12.0413 37.8939 12.2565 38.4996 12.6683 38.9633L12.7893 39.0843L27.7563 24.1203V23.8793L12.5513 8.91528Z" fill="url(#paint0_linear)"/>
<path d="M32.5833 29.1893L27.6353 24.2413V23.8793L32.5833 18.9313L32.7043 19.0523L38.6173 22.4313C40.3063 23.3963 40.3063 24.9653 38.6173 25.9313L32.5833 29.1893Z" fill="url(#paint1_linear)"/>
<path d="M32.7043 29.0682L27.6363 24.0002L12.5513 39.0852C13.1513 39.6852 13.9993 39.6852 15.0853 39.2062L32.7043 29.0682Z" fill="url(#paint2_linear)"/>
<path d="M32.7043 18.9313L15.0853 8.91532C14.7174 8.63107 14.2603 8.48713 13.796 8.50931C13.3316 8.53148 12.8904 8.71832 12.5513 9.03632L27.6363 24.0003L32.7043 18.9323V18.9313Z" fill="url(#paint3_linear)"/>
<path opacity="0.2" d="M32.5843 28.9473L15.0853 38.8473C14.7396 39.1144 14.3151 39.2593 13.8783 39.2593C13.4415 39.2593 13.017 39.1144 12.6713 38.8473L12.5503 38.9683L12.6713 39.0893C13.017 39.3564 13.4415 39.5013 13.8783 39.5013C14.3151 39.5013 14.7396 39.3564 15.0853 39.0893L32.5843 28.9473Z" fill="black"/>
<path opacity="0.12" d="M12.5513 38.8432C12.1789 38.3634 12.0058 37.7584 12.0683 37.1542V37.2752C12.0413 37.8948 12.2565 38.5006 12.6683 38.9642V38.8432H12.5473H12.5513ZM38.6173 25.5692L32.5833 28.9482L32.7043 29.0692L38.6173 25.6902C38.9535 25.5455 39.2438 25.3115 39.4565 25.0136C39.6693 24.7157 39.7965 24.3653 39.8243 24.0002C39.8243 24.6002 39.3413 25.0862 38.6173 25.5692Z" fill="black"/>
<path opacity="0.25" d="M15.0852 9.03627L38.6172 22.4363C39.3412 22.9193 39.8242 23.4013 39.8242 24.0053C39.7962 23.6404 39.669 23.2902 39.4562 22.9925C39.2435 22.6948 38.9533 22.4609 38.6172 22.3163L15.0852 8.91527C13.3952 7.95027 12.0682 8.67427 12.0682 10.6043V10.7253C12.0682 8.91527 13.3952 8.07027 15.0852 9.03627Z" fill="white"/>
<defs>
<linearGradient id="paint0_linear" x1="26.3118" y1="40.0497" x2="2.31173" y2="33.5483" gradientUnits="userSpaceOnUse">
<stop stop-color="#00A0FF"/>
<stop offset="0.007" stop-color="#00A1FF"/>
<stop offset="0.26" stop-color="#00BEFF"/>
<stop offset="0.512" stop-color="#00D2FF"/>
<stop offset="0.76" stop-color="#00DFFF"/>
<stop offset="1" stop-color="#00E3FF"/>
</linearGradient>
<linearGradient id="paint1_linear" x1="40.8272" y1="26.4094" x2="11.6261" y2="26.4094" gradientUnits="userSpaceOnUse">
<stop stop-color="#FFE000"/>
<stop offset="0.409" stop-color="#FFBD00"/>
<stop offset="0.775" stop-color="#FFA500"/>
<stop offset="1" stop-color="#FF9C00"/>
</linearGradient>
<linearGradient id="paint2_linear" x1="29.9635" y1="23.6426" x2="10.6973" y2="-8.70634" gradientUnits="userSpaceOnUse">
<stop stop-color="#FF3A44"/>
<stop offset="1" stop-color="#C31162"/>
</linearGradient>
<linearGradient id="paint3_linear" x1="8.80281" y1="50.3543" x2="17.3564" y2="35.8848" gradientUnits="userSpaceOnUse">
<stop stop-color="#32A071"/>
<stop offset="0.069" stop-color="#2DA771"/>
<stop offset="0.476" stop-color="#15CF74"/>
<stop offset="0.801" stop-color="#06E775"/>
<stop offset="1" stop-color="#00F076"/>
</linearGradient>
</defs>
</svg>
