<svg width="127" height="36" viewBox="0 0 127 36" fill="none" xmlns="http://www.w3.org/2000/svg">
<path d="M16.9449 29.4748V13.434C16.9449 9.83896 15.5153 8.00993 12.53 8.00993C10.3646 8.00993 8.59859 9.01905 6.76955 11.0163V0H0V29.3907H6.76955V14.2749C7.61048 13.3499 8.26221 12.9294 8.93496 12.9294C9.94409 12.9294 10.1964 13.6863 10.1964 15.1789V29.4538H16.9449V29.4748ZM37.8212 19.0262C37.8212 12.0885 34.2262 8.09402 28.3816 8.09402C22.6212 8.09402 18.9421 12.1095 18.9421 19.0262C18.9421 25.8798 22.6212 29.9584 28.3816 29.9584C34.2262 29.9584 37.8212 25.9639 37.8212 19.0262ZM30.6311 19.0262C30.6311 23.4621 30.2107 25.5435 28.2975 25.5435C26.3844 25.5435 25.9639 23.4621 25.9639 19.0262C25.9639 14.6744 26.4685 12.5089 28.2975 12.5089C30.2948 12.5089 30.6311 14.5903 30.6311 19.0262ZM66.8545 29.4748V13.434C66.8545 9.75487 65.509 8.00993 62.4396 8.00993C60.2742 8.00993 58.4241 9.10314 56.5951 11.2686C56.1746 9.18724 54.5979 8.00993 52.3273 8.00993C50.1619 8.00993 48.48 9.01905 46.5669 11.0163V8.51449H39.7974V29.3907H46.5669V14.2749C47.4079 13.3499 48.0596 12.9294 48.7323 12.9294C49.7415 12.9294 49.9937 13.6863 49.9937 15.1789V29.4538H56.6792V14.338C57.436 13.4129 58.1718 12.9925 58.8446 12.9925C59.8537 12.9925 60.106 13.7493 60.106 15.242V29.5169H66.8756V29.4748H66.8545ZM89.4968 29.4748H96.6658V22.0325H89.4968V29.4748ZM117.374 18.2694C117.374 11.668 114.788 8.07299 110.436 8.07299C108.859 8.07299 107.346 8.91393 106.105 10.4907V8.66165H99.5039V35.7188H106.273V27.6248C107.367 28.8862 108.607 29.5379 110.289 29.5379C114.62 29.4748 117.374 25.5435 117.374 18.2694ZM110.436 18.858C110.436 23.5252 110.436 25.7116 108.607 25.7116C107.934 25.7116 107.177 25.2912 106.442 24.4502V13.2658C107.199 12.4248 107.934 12.0044 108.607 12.0044C110.436 12.0885 110.436 14.1908 110.436 18.858ZM119.371 29.4748H126.141V0.0630709H119.371V29.4748Z" fill="#CBCEDC"/>
<path d="M86.7353 18.859C86.7353 11.9212 83.5607 8.09497 78.0526 8.09497C72.4604 8.09497 68.7812 12.1945 68.7812 18.859C68.7812 25.7967 72.4604 29.9593 78.2208 29.9593C81.984 29.9593 84.9062 28.0462 86.5671 24.283L81.984 22.6222C81.2271 24.5353 79.9026 25.5444 78.4731 25.5444C76.5599 25.5444 75.4667 23.7995 75.4667 20.4567H86.7353C86.7353 19.784 86.7353 19.2794 86.7353 18.859ZM80.3862 16.3572H75.2985V16.1049C75.2985 13.6872 76.3076 12.4258 77.8844 12.4258C79.4612 12.4258 80.3862 13.6872 80.3862 16.0208V16.3572Z" fill="#CBCEDC"/>
</svg>
