<svg width="120" height="22" viewBox="0 0 120 22" fill="none" xmlns="http://www.w3.org/2000/svg">
<path d="M7.98979 18.1239C9.0619 18.1239 10.0574 17.9707 10.9253 17.4602L11.7422 20.7531C10.4914 21.3913 9.31717 21.57 7.98979 21.57C3.49713 21.57 0 18.226 0 13.9886C0 9.7512 3.49713 6.40723 7.98979 6.40723C9.34269 6.40723 10.4914 6.53486 11.7422 7.17302L10.9253 10.4404C10.1595 10.1086 9.24059 9.8533 7.98979 9.8533C5.74346 9.8533 3.95661 11.6146 3.95661 13.9886C3.95661 16.4136 5.74346 18.1239 7.98979 18.1239Z" fill="#23D99C"/>
<path d="M13.707 0H17.8934V8.37269L18.0721 8.42374C19.0676 7.24952 20.7523 6.40715 22.9476 6.40715C25.8321 6.40715 28.2316 8.52584 28.2316 12.7632V21.2891H24.0197V12.993C24.0197 10.7722 22.7434 9.85322 21.1863 9.85322C19.8334 9.85322 18.5826 10.5169 17.8934 11.4359V21.2891H13.707V0Z" fill="#23D99C"/>
<path d="M42.0174 7.70899L42.1705 7.63241V6.73898H46.3569V21.3146H42.1705V19.9107L41.9918 19.8596C41.0984 20.8807 39.5668 21.6209 37.7034 21.6209C33.7723 21.6209 30.6836 18.277 30.6836 14.0396C30.6836 9.80216 33.8999 6.45819 38.0097 6.45819C39.8221 6.40714 41.0984 6.9432 42.0174 7.70899ZM42.1705 16.1583V10.8487C41.2771 10.2361 40.0008 9.85322 38.5202 9.85322C36.5036 9.85322 34.8699 11.5635 34.8699 13.9885C34.8699 16.388 36.5036 18.1238 38.5202 18.1238C40.0008 18.1238 41.4047 17.6133 42.1705 16.1583Z" fill="#23D99C"/>
<path d="M50.0312 6.71354H54.2176V8.37277L54.3963 8.42382C55.3918 7.2496 57.0766 6.40723 59.2718 6.40723C62.1563 6.40723 64.5558 8.47487 64.5558 12.5336V21.2892H60.3695V12.7633C60.3695 10.7212 59.0932 9.8533 57.536 9.8533C56.2342 9.8533 55.0344 10.2617 54.2431 11.1296V21.2892H50.0312V6.71354Z" fill="#23D99C"/>
<path d="M67.748 6.71354H71.9344V8.37277L72.1131 8.42382C73.1086 7.2496 74.7934 6.40723 76.9886 6.40723C79.8731 6.40723 82.2726 8.47487 82.2726 12.5336V21.2892H78.0863V12.7633C78.0863 10.7212 76.8099 9.8533 75.2528 9.8533C73.951 9.8533 72.7512 10.2617 71.9599 11.1296V21.2892H67.7736V6.71354H67.748Z" fill="#23D99C"/>
<path d="M99.1969 13.4779V15.2392H88.8331C89.1139 17.2558 90.4157 18.1237 93.1471 18.1492C94.7042 18.1492 96.1847 17.8684 97.4355 17.2813L98.1758 20.3445C96.6187 21.1869 94.8829 21.5953 93.1726 21.5953C87.9141 21.5953 84.5957 18.7363 84.5957 14.0395C84.5957 10.0573 87.327 6.48362 92.0494 6.43257C96.2358 6.40704 99.1203 8.85759 99.1969 13.4779ZM88.9607 12.4823H94.9595C94.7808 10.5934 93.6576 9.85312 92.1771 9.85312C90.3647 9.85312 89.3436 10.7976 88.9607 12.4823Z" fill="#23D99C"/>
<path d="M101.773 21.5444C101.773 17.9451 101.773 19.7575 101.773 16.2859V0H105.96V15.8264C105.96 17.1793 105.96 19.9362 105.96 21.5444H101.773Z" fill="#23D99C"/>
<path d="M109.662 17.2558C110.964 17.6898 112.316 18.0216 113.644 18.0216C114.869 18.0216 115.839 17.6643 115.839 16.8219C115.839 16.1582 115.431 15.6732 113.567 15.3158C110.759 14.7287 108.998 13.3503 108.998 11.0274C108.998 7.96421 111.729 6.43262 114.767 6.43262C116.426 6.43262 118.009 6.84104 119.438 7.42815L118.826 10.6955C117.575 10.2616 116.299 9.92975 114.997 9.92975C114.001 9.92975 113.133 10.3126 113.133 11.0274C113.133 11.6145 113.465 12.0995 115.405 12.4824C118.264 13.0695 120 14.2437 120 16.7198C120 20.0127 117.064 21.5188 113.899 21.5188C112.189 21.5188 110.555 21.1359 108.998 20.5488L109.662 17.2558Z" fill="#23D99C"/>
</svg>
