<svg width="159" height="33" viewBox="0 0 159 33" fill="none" xmlns="http://www.w3.org/2000/svg">
<path d="M57.3341 16.5177C57.3068 14.8639 57.5518 13.2578 58.1371 11.7129C58.9402 9.60308 60.2401 7.90165 62.2614 6.79912C63.4252 6.16618 64.657 5.8327 65.9705 5.70339C67.2909 5.58089 68.584 5.67617 69.843 6.03007C72.1774 6.69703 73.9333 8.12624 75.097 10.2564C75.8933 11.7061 76.3085 13.2646 76.4514 14.9116C76.5603 16.1502 76.5467 17.382 76.3833 18.6071C76.2132 19.8934 75.8389 21.1252 75.2468 22.289C74.4369 23.8883 73.2867 25.161 71.7282 26.0594C70.7618 26.6106 69.7273 26.9577 68.6316 27.1211C66.4197 27.4477 64.2895 27.23 62.2954 26.1683C60.7642 25.3584 59.6004 24.1538 58.7701 22.6293C58.001 21.2273 57.5723 19.7232 57.4362 18.1375C57.3885 17.5998 57.3681 17.0622 57.3341 16.5177ZM66.9438 8.3236C65.8685 8.26235 64.9565 8.52778 64.2963 8.82723C62.2886 9.73239 61.2133 11.393 60.6825 13.4415C60.3558 14.6938 60.2401 15.9733 60.3422 17.2732C60.4511 18.5935 60.6893 19.8729 61.2746 21.0708C62.5745 23.725 64.9565 24.8479 67.7537 24.5349C68.4478 24.4532 69.1692 24.2695 69.8022 23.9632C71.6942 23.0512 72.6946 21.411 73.1982 19.4442C73.4977 18.2804 73.5998 17.0894 73.5317 15.878C73.4637 14.6597 73.2595 13.4824 72.8171 12.3322C71.8983 9.94337 69.6865 8.23513 66.9438 8.3236Z" fill="#CBCEDC"/>
<path d="M80.0547 26.8355C80.0547 19.8868 80.0547 12.979 80.0547 6.04393C80.1976 6.03032 80.3065 6.01671 80.4154 6.01671C82.3346 6.01671 84.247 5.98268 86.1662 6.02352C87.8132 6.06435 89.4398 6.25491 90.9915 6.86062C93.0673 7.67051 94.7006 8.99082 95.7691 10.9849C96.545 12.4277 96.8853 13.9862 97.001 15.606C97.0827 16.7358 97.0146 17.8587 96.79 18.9544C96.1775 21.9081 94.6394 24.2017 91.8899 25.59C90.3586 26.3659 88.732 26.7742 87.0238 26.8151C84.8119 26.8627 82.6 26.8559 80.395 26.8695C80.2929 26.8695 80.1976 26.8491 80.0547 26.8355ZM82.9199 24.2153C83.0696 24.2357 83.1989 24.2697 83.3351 24.2697C84.3083 24.2765 85.2883 24.2969 86.2615 24.2629C87.6635 24.2153 89.0383 24.0315 90.3177 23.4054C91.815 22.6772 92.8563 21.5406 93.4552 19.9889C93.8023 19.0905 93.9588 18.1582 94.0201 17.2053C94.1358 15.5584 93.9316 13.9726 93.217 12.4754C92.6045 11.1891 91.6517 10.2431 90.3994 9.58292C89.0315 8.86151 87.5342 8.69817 86.0233 8.65053C85.1522 8.62331 84.2742 8.64373 83.4031 8.64373C82.9471 8.64373 82.8995 8.69817 82.8995 9.15416C82.8995 14.0543 82.8995 18.9544 82.8995 23.8478C82.8927 23.9634 82.9131 24.0723 82.9199 24.2153Z" fill="#CBCEDC"/>
<path d="M118.941 6.05825C119.915 6.05825 120.827 6.05825 121.813 6.05825C121.813 9.09361 121.813 12.0813 121.813 15.0759C121.847 15.0895 121.888 15.1031 121.922 15.1167C121.997 15.0622 122.086 15.0214 122.147 14.9534C124.018 12.9184 125.89 10.8835 127.762 8.85541C128.565 7.97747 129.375 7.10633 130.198 6.242C130.3 6.13311 130.464 6.03103 130.6 6.03103C131.641 6.01061 132.689 6.02422 133.73 6.02422C133.785 6.02422 133.832 6.05144 133.941 6.07867C133.873 6.20117 133.832 6.31687 133.758 6.39854C132.281 7.96386 130.804 9.52918 129.327 11.0945C127.905 12.6054 126.489 14.1162 125.073 15.6271C125.019 15.6816 124.985 15.7564 124.917 15.8517C128.238 19.486 131.552 23.1134 134.935 26.809C134.724 26.8362 134.608 26.8702 134.493 26.8702C133.553 26.8702 132.607 26.8566 131.668 26.877C131.307 26.8838 131.049 26.7749 130.817 26.5027C129.722 25.2504 128.606 24.0118 127.496 22.7731C125.72 20.7791 123.944 18.7782 122.161 16.7841C122.099 16.716 122.011 16.6752 121.841 16.5527C121.841 20.0236 121.841 23.3857 121.841 26.7137C121.548 26.8906 119.465 26.9383 118.948 26.809C118.941 19.9079 118.941 12.9933 118.941 6.05825Z" fill="#CBCEDC"/>
<path d="M56.9774 6.10412C53.9421 9.37088 50.9611 12.5832 47.9394 15.8295C51.2878 19.491 54.5954 23.1117 57.9711 26.8072C57.7465 26.8412 57.6444 26.8684 57.5423 26.8684C56.5419 26.8684 55.5482 26.8616 54.5478 26.8752C54.2892 26.8752 54.1054 26.7936 53.9285 26.5962C51.9412 24.3571 49.9471 22.1316 47.9598 19.8994C47.0478 18.8785 46.1359 17.8508 45.2239 16.83C45.1422 16.7415 45.0333 16.6666 44.9381 16.5918C44.904 16.6054 44.87 16.619 44.836 16.6326C44.836 20.0083 44.836 23.3907 44.836 26.8208C43.856 26.8208 42.9372 26.8208 41.9844 26.8208C41.9844 19.9062 41.9844 12.9915 41.9844 6.06329C42.9304 6.06329 43.8355 6.06329 44.8224 6.06329C44.8224 9.09865 44.8224 12.0932 44.8224 15.0809C44.8564 15.0945 44.8972 15.1149 44.9313 15.1285C45.0334 15.0537 45.149 14.9992 45.2307 14.9108C46.6259 13.3931 48.0143 11.8686 49.4094 10.3509C50.6821 8.96934 51.9616 7.58777 53.2479 6.21301C53.3364 6.11773 53.4997 6.02926 53.629 6.02926C54.6499 6.01565 55.6707 6.02245 56.6916 6.02245C56.746 6.01565 56.8005 6.04968 56.9774 6.10412Z" fill="#CBCEDC"/>
<path d="M116.459 26.8219C116.241 26.8423 116.146 26.8627 116.044 26.8627C115.343 26.8627 114.635 26.8559 113.934 26.8695C113.655 26.8695 113.512 26.7606 113.417 26.4884C112.886 25.0592 112.335 23.63 111.797 22.2076C111.607 21.7108 111.43 21.214 111.232 20.6899C108.422 20.6899 105.631 20.6899 102.78 20.6899C102.004 22.7316 101.221 24.787 100.445 26.8219C99.4652 26.8219 98.56 26.8219 97.5664 26.8219C97.7161 26.4136 97.8318 26.0665 97.9611 25.7194C98.3627 24.6645 98.7642 23.6096 99.1726 22.5479C99.6353 21.3365 100.105 20.1182 100.568 18.9068C101.031 17.6818 101.487 16.4499 101.956 15.2249C102.398 14.0611 102.848 12.9042 103.29 11.7404C103.766 10.4949 104.236 9.24267 104.712 7.99722C104.93 7.41873 105.141 6.82663 105.379 6.25495C105.427 6.13925 105.577 5.98952 105.679 5.98272C106.604 5.9623 107.53 5.96911 108.503 5.96911C111.157 12.9246 113.798 19.846 116.459 26.8219ZM110.198 18.0629C110.191 17.9676 110.205 17.9064 110.184 17.8587C109.749 16.7086 109.313 15.5516 108.884 14.4014C108.326 12.9246 107.775 11.4409 107.21 9.96408C107.162 9.84157 107.067 9.73949 106.945 9.54212C105.863 12.4346 104.821 15.2181 103.76 18.0629C105.944 18.0629 108.054 18.0629 110.198 18.0629Z" fill="#CBCEDC"/>
<path d="M152.238 26.8152C151.265 26.8152 150.346 26.8152 149.353 26.8152C149.353 20.7921 149.353 14.7758 149.353 8.69828C147.12 8.69828 144.963 8.69828 142.758 8.69828C142.758 7.79311 142.758 6.9424 142.758 6.05765C142.908 6.03723 143.037 6.01001 143.166 6.01001C148.141 6.01001 153.123 6.01001 158.098 6.01001C158.554 6.01001 158.622 6.07126 158.683 6.52725C158.765 7.11254 158.86 7.69103 158.942 8.27632C158.955 8.38521 158.955 8.50091 158.962 8.65744C158.799 8.67786 158.663 8.70508 158.527 8.70508C156.601 8.70508 154.668 8.70508 152.742 8.70508C152.592 8.70508 152.436 8.73231 152.225 8.74592C152.238 14.7826 152.238 20.7785 152.238 26.8152Z" fill="#CBCEDC"/>
<path d="M137.453 6.04395C138.42 6.04395 139.318 6.04395 140.196 6.04395C140.339 6.30256 140.4 26.2502 140.278 26.7538C140.046 26.8899 137.964 26.9376 137.453 26.8083C137.453 19.9072 137.453 12.9926 137.453 6.04395Z" fill="#CBCEDC"/>
<path fill-rule="evenodd" clip-rule="evenodd" d="M32.8513 32.7901H3.08981C1.38157 32.7901 0 31.4085 0 29.7003V3.083C0 1.38157 1.38157 0 3.08981 0H32.8513C34.5596 0 35.9411 1.38157 35.9411 3.08981V29.7071C35.9411 31.4085 34.5596 32.7901 32.8513 32.7901Z" fill="#CBCEDC"/>
<path fill-rule="evenodd" clip-rule="evenodd" d="M8.26583 16.2998C8.26583 16.572 8.27263 16.8782 8.66737 17.4499C9.0553 18.0216 14.5475 25.6781 14.5475 25.6781C14.8402 26.066 14.9559 26.8691 14.0099 26.8691C13.9146 26.8691 8.66056 26.8418 7.48997 26.8623C7.35386 26.8623 7.15649 26.835 6.95232 26.7534C6.66648 26.6377 6.38744 26.4335 6.20369 26.1545C6.04035 25.9095 5.90424 25.6645 5.89062 25.2085V7.38423C5.90424 6.92825 6.04035 6.68324 6.20369 6.43824C6.38744 6.1592 6.66648 5.94822 6.95232 5.83933C7.15649 5.75766 7.36067 5.73044 7.48997 5.73044C8.65376 5.75086 13.9078 5.72363 14.0099 5.72363C14.9627 5.72363 14.847 6.52671 14.5475 6.91464C14.5475 6.91464 9.0553 14.5711 8.66737 15.1428C8.27944 15.7145 8.26583 16.0275 8.26583 16.2998Z" fill="white"/>
<path fill-rule="evenodd" clip-rule="evenodd" d="M30.0781 24.617C30.0781 26.9718 27.9752 26.8629 27.9752 26.8629H21.2987C20.4889 26.8288 20.0805 26.3116 19.6381 25.9441C18.0864 24.6578 9.75173 16.9265 9.51353 16.7019C9.27533 16.4773 9.26172 16.4365 9.26172 16.3004C9.26172 16.1642 9.27533 16.1234 9.51353 15.8988C9.75173 15.6742 18.0932 7.9429 19.6381 6.65662C20.0805 6.28911 20.4889 5.77187 21.2987 5.73784H27.9752C27.9752 5.73784 30.0781 5.62895 30.0781 7.98374V24.617Z" fill="white"/>
</svg>
