<svg width="64" height="70" viewBox="0 0 64 70" fill="none" xmlns="http://www.w3.org/2000/svg">
<path d="M14 54.5C14 45.9396 20.9396 39 29.5 39H59V70H29.5C20.9396 70 14 63.0604 14 54.5Z" fill="#DBE9FE"/>
<path d="M46.0811 23.0402V14.0802C46.0811 13.3733 45.508 12.8002 44.8011 12.8002C44.7484 12.8002 44.6958 12.8035 44.6436 12.81L11.0019 16.9811C9.10585 17.2339 7.68109 18.8613 7.68109 20.7859V24.3198C8.75074 23.5163 10.0803 23.0402 11.5211 23.0402H46.0811ZM48.6411 23.0402H52.4811C56.0157 23.0402 58.8811 25.9056 58.8811 29.4402V55.0402C58.8811 58.5749 56.0157 61.4402 52.4811 61.4402H11.5211C7.98647 61.4402 5.12109 58.5749 5.12109 55.0402V20.7859C5.12109 17.5782 7.49569 14.866 10.6752 14.442L44.3286 10.2694C44.4853 10.25 44.6431 10.2402 44.8011 10.2402C46.9219 10.2402 48.6411 11.9595 48.6411 14.0802V23.0402ZM56.3211 29.4402C56.3211 27.3195 54.6019 25.6002 52.4811 25.6002H11.5211C9.40032 25.6002 7.68109 27.3195 7.68109 29.4402V55.0402C7.68109 57.161 9.40032 58.8802 11.5211 58.8802H52.4811C54.6019 58.8802 56.3211 57.161 56.3211 55.0402V51.2002H44.8011C39.8526 51.2002 35.8411 47.1887 35.8411 42.2402C35.8411 37.2918 39.8526 33.2802 44.8011 33.2802H56.3211V29.4402ZM44.8011 35.8402C41.2665 35.8402 38.4011 38.7056 38.4011 42.2402C38.4011 45.7749 41.2665 48.6402 44.8011 48.6402H56.3211V35.8402H44.8011ZM44.8011 43.5202C44.0942 43.5202 43.5211 42.9472 43.5211 42.2402C43.5211 41.5333 44.0942 40.9602 44.8011 40.9602C45.508 40.9602 46.0811 41.5333 46.0811 42.2402C46.0811 42.9472 45.508 43.5202 44.8011 43.5202Z" fill="#1A3349"/>
</svg>
