<svg width="64" height="64" viewBox="0 0 64 64" fill="none" xmlns="http://www.w3.org/2000/svg">
<path d="M14.6094 26.9565H54.1224C59.578 26.9565 64.0007 31.3928 64.0007 36.8653V52.7193C64.0007 58.1917 59.578 62.628 54.1224 62.628H24.4876C19.032 62.628 14.6094 58.1917 14.6094 52.7193V26.9565Z" fill="#DBE9FE"/>
<path d="M20.4809 12.7999L43.5209 12.7999L43.5209 8.95993C43.5209 8.25301 44.0939 7.67993 44.8009 7.67993C45.5078 7.67993 46.0809 8.25301 46.0809 8.95993L46.0809 12.7999L49.9209 12.7999C54.8693 12.7999 58.8809 16.8115 58.8809 21.7599L58.8809 47.3599C58.8809 52.3084 54.8693 56.3199 49.9209 56.3199L14.0809 56.3199C9.13239 56.3199 5.12086 52.3084 5.12086 47.3599L5.12086 21.7599C5.12086 16.8115 9.13239 12.7999 14.0809 12.7999L17.9209 12.7999L17.9209 8.95993C17.9209 8.25301 18.4939 7.67993 19.2009 7.67993C19.9078 7.67993 20.4809 8.25301 20.4809 8.95993L20.4809 12.7999ZM20.4809 15.3599L20.4809 19.1906C20.4809 19.8975 19.9078 20.4706 19.2009 20.4706C18.4939 20.4706 17.9209 19.8975 17.9209 19.1906L17.9209 15.3599L14.0809 15.3599C10.5462 15.3599 7.68086 18.2253 7.68086 21.7599L7.68086 47.3599C7.68086 50.8946 10.5462 53.7599 14.0809 53.7599L49.9209 53.7599C53.4555 53.7599 56.3209 50.8946 56.3209 47.3599L56.3209 21.7599C56.3209 18.2253 53.4555 15.3599 49.9209 15.3599L46.0809 15.3599L46.0809 19.1906C46.0809 19.8975 45.5078 20.4706 44.8009 20.4706C44.0939 20.4706 43.5209 19.8975 43.5209 19.1906L43.5209 15.3599L20.4809 15.3599Z" fill="#1A3349"/>
<rect x="7.67383" y="25.5999" width="48.64" height="2.56" fill="#1A3349"/>
<circle cx="19.196" cy="34.5593" r="1.28" fill="#1A3349"/>
<circle cx="31.9988" cy="34.5593" r="1.28" fill="#1A3349"/>
<circle cx="44.7956" cy="34.5593" r="1.28" fill="#1A3349"/>
<circle cx="19.196" cy="44.8" r="1.28" fill="#1A3349"/>
<circle cx="31.9988" cy="44.8" r="1.28" fill="#1A3349"/>
<circle cx="44.7956" cy="44.8" r="1.28" fill="#1A3349"/>
</svg>
