<svg width="113" height="36" viewBox="0 0 113 36" fill="none" xmlns="http://www.w3.org/2000/svg">
<path d="M112.206 0V35.7912C74.8023 35.7912 37.4033 35.7912 0 35.7912V0H112.206ZM8.96277 26.8498C9.21934 26.8498 13.1619 26.8498 13.2988 26.8498C13.2988 25.862 13.2988 23.2279 13.2988 23.0312C13.4313 23.0312 14.077 23.0312 14.2523 23.0312C16.0098 23.027 17.7759 23.0355 19.5376 23.0312C21.8895 23.027 24.1388 23.0526 26.4863 23.0526C26.713 23.0526 26.8156 23.0526 26.8969 23.0526C27.0978 22.8944 29.9671 20.7307 29.9671 16.0056C29.9671 11.6696 27.2732 9.42887 26.7429 8.92001C26.589 8.92428 26.7942 8.92001 26.4607 8.92428C26.1058 8.92856 25.7509 8.93284 25.3917 8.93284C20.8419 8.93284 16.2878 8.93711 11.738 8.93284C10.9212 8.93284 10.639 8.92856 8.95849 8.92856L8.96277 26.8498ZM63.7443 8.93284C63.2055 8.93284 63.2055 8.93284 62.9275 9.41176C62.7779 9.67688 62.6239 9.942 62.4657 10.1986C62.1279 10.7416 61.7858 11.2847 61.4394 11.8235C60.9092 12.6488 60.3747 13.4698 59.8444 14.2994C59.4767 14.8724 59.1261 15.4582 58.7626 16.0355C58.4761 16.493 58.1853 16.9506 57.8988 17.4038C57.685 17.7417 57.4712 18.0752 57.2574 18.413C56.9025 18.9689 56.539 19.5205 56.1883 20.0807C55.9147 20.5126 55.6538 20.953 55.3759 21.3849C55.0338 21.9152 54.666 22.4326 54.324 22.9628C54.0375 23.4075 53.7681 23.8694 53.4858 24.3226C53.0368 25.0453 52.5836 25.768 52.1303 26.4906C51.9635 26.7557 51.9935 26.8284 52.3056 26.8327C53.6141 26.8413 55.9232 26.8455 56.7314 26.8498C56.9196 26.5676 57.561 25.6354 57.7534 25.3532C58.0356 24.9341 58.3179 24.5151 58.5958 24.0917C58.6984 23.9378 58.831 23.8608 59.0234 23.8651C59.3655 23.8694 59.7076 23.848 60.0497 23.848C64.1933 23.8437 68.3411 23.8394 72.4847 23.8437C72.613 23.8437 72.7755 23.9249 72.8653 24.0233C72.9978 24.1644 73.0833 24.3526 73.186 24.5236C73.4682 24.9897 73.7547 25.4558 74.0369 25.9262C74.1738 26.1485 74.3106 26.3709 74.4389 26.6018C74.5543 26.8028 74.7297 26.8498 74.9435 26.8498C76.4102 26.8413 77.8769 26.837 79.3436 26.8284C79.5873 26.8284 79.6386 26.7344 79.5061 26.5248C79.1383 25.9476 78.762 25.3788 78.3986 24.8016C77.8598 23.9463 77.3338 23.0868 76.795 22.2359C76.2691 21.3978 75.7345 20.5682 75.2043 19.7343C74.9092 19.264 74.6185 18.7936 74.3234 18.3232C73.729 17.3782 73.1304 16.4374 72.536 15.4924C72.0571 14.7355 71.5867 13.9744 71.1078 13.2175C70.5305 12.3067 69.9489 11.3959 69.3674 10.4808C69.0723 10.019 68.7816 9.55287 68.4779 9.0996C68.4181 9.01408 68.2898 8.92856 68.1914 8.92856C67.4175 8.91573 66.6392 8.92001 65.861 8.92001L63.7443 8.93284ZM78.5782 8.93284V8.93711C78.3729 8.93711 78.1634 8.93711 77.9581 8.93711C77.3082 8.93711 76.6625 8.93711 76.0125 8.94139C75.9483 8.94139 75.8885 8.98415 75.8243 9.00981C75.8457 9.0654 75.8628 9.12954 75.8928 9.18085C75.9398 9.25354 75.9954 9.31769 76.0467 9.38611C76.5128 9.96766 76.9789 10.5535 77.445 11.135C77.9923 11.8149 78.544 12.4949 79.087 13.179C79.3607 13.5254 79.613 13.8846 79.8909 14.2267C80.3014 14.7355 80.7333 15.2273 81.1438 15.7362C81.6826 16.4075 82.2043 17.0874 82.7388 17.7588C83.1921 18.3232 83.6539 18.8791 84.1115 19.4436C84.6631 20.1192 85.2104 20.7991 85.7578 21.479C86.0742 21.8724 86.3821 22.2744 86.6943 22.6678C86.9081 22.9329 86.9081 22.9885 86.6985 23.2536C86.3094 23.7453 85.9288 24.2371 85.5483 24.7374C85.0864 25.3403 84.6332 25.9518 84.1799 26.559C84.1371 26.6146 84.1329 26.6959 84.1072 26.7643C84.1713 26.7857 84.2355 26.8199 84.3039 26.8199C85.0522 26.8327 85.7963 26.8455 86.5446 26.8498C87.3229 26.8541 88.0968 26.8584 88.8751 26.8498C89.0034 26.8498 89.1787 26.8071 89.2557 26.7173C89.632 26.2854 89.9869 25.8321 90.3418 25.3831C90.6882 24.9469 91.0217 24.5065 91.3681 24.0746C91.7486 23.5957 92.1378 23.1253 92.5141 22.6464C92.9716 22.0606 93.4163 21.4619 93.8696 20.8718C94.1732 20.4784 94.4896 20.0935 94.7933 19.7044C95.084 19.3367 95.362 18.9604 95.6528 18.5926C96.0162 18.1308 96.3925 17.6775 96.7603 17.2114C97.329 16.4845 97.8934 15.749 98.4622 15.022C99.001 14.3336 99.5483 13.6537 100.087 12.9652C100.63 12.2725 101.169 11.5755 101.712 10.8828C102.131 10.3482 102.559 9.81372 102.978 9.28348C103.016 9.23217 103.055 9.18085 103.085 9.12526C103.14 9.01408 103.11 8.94139 102.978 8.94139C102.871 8.94139 102.764 8.95422 102.657 8.95422C101.083 8.94566 99.5098 8.94139 97.9362 8.92856C97.7352 8.92856 97.5856 8.99698 97.4658 9.16375C96.7603 10.1173 96.0504 11.0666 95.3363 12.0159C94.8403 12.6744 94.3443 13.333 93.8482 13.9915C93.4121 14.5602 92.9673 15.1247 92.5355 15.6977C91.8727 16.5743 91.2141 17.4594 90.5556 18.3403C90.3332 18.6354 90.1152 18.9347 89.88 19.2212C89.6961 19.4478 89.6405 19.4393 89.4652 19.2127C89.0076 18.6225 88.5501 18.0324 88.0883 17.4466C87.7248 16.9891 87.34 16.5529 86.9808 16.0954C86.4206 15.3812 85.8775 14.65 85.3173 13.9359C84.77 13.2346 84.2141 12.5462 83.6582 11.8492C82.9056 10.9084 82.153 9.96766 81.4004 9.02691C81.3534 8.97132 81.285 8.93711 81.2123 8.93711C80.3442 8.93711 79.4633 8.93284 78.5782 8.93284ZM37.0569 8.93284C36.8688 8.93284 33.8926 8.92856 32.7338 8.92428C32.7338 9.15947 32.7252 13.1192 32.7252 15.0135C32.7252 18.4429 32.7252 21.8724 32.7252 25.3061C32.7252 25.7124 32.7295 26.1186 32.7252 26.5248C32.7252 26.8541 32.7252 26.7515 32.7252 26.8541C32.892 26.8541 33.3068 26.8541 33.4607 26.8541C36.2317 26.8541 39.0026 26.8541 41.7735 26.8541V26.8584C43.9159 26.8584 46.0625 26.8584 48.2048 26.8584C48.9531 26.8584 50.0008 26.8541 50.7534 26.8541C50.7534 26.7002 50.7534 26.8199 50.7534 26.559C50.7534 26.2469 50.7534 25.8962 50.7534 25.5841C50.7577 24.8358 50.7534 23.7881 50.7534 23.0355C50.6166 23.0355 50.6807 23.0355 50.4241 23.0355C49.7271 23.0355 48.9788 23.0355 48.2561 23.0355C46.2635 23.0355 44.2665 23.0355 42.2738 23.0355C40.5505 23.0355 38.7802 23.0355 37.0569 23.0355" fill="#CBCEDC"/>
<path d="M14.7008 19.1439C14.3587 19.1439 13.6702 19.1611 13.3281 19.1568C13.3281 18.9857 13.3281 13.0334 13.3281 12.8538C15.7869 12.8538 18.6476 12.8538 21.1021 12.8538C22.3978 12.8538 23.6935 12.858 24.9891 12.8538C25.1516 12.8538 25.2671 12.9093 25.3398 13.0505C25.4253 13.213 25.5108 13.3797 25.5835 13.5508C25.9513 14.4103 26.148 15.2997 26.1138 16.2447C26.0924 16.9161 25.9641 17.5532 25.7289 18.1775C25.6434 18.3956 25.5707 18.618 25.4937 18.8403C25.4167 19.067 25.2543 19.1653 25.0148 19.1653C23.7277 19.1653 22.4363 19.1611 21.1492 19.1653C20.542 19.1696 19.939 19.1653 19.3318 19.1653C19.3404 19.1568 16.2487 19.1439 14.7008 19.1439Z" fill="#CBCEDC"/>
<path d="M65.8375 19.9698C64.4264 19.9698 63.0196 19.9698 61.6084 19.9698C61.0825 19.9698 61.0397 19.9184 61.3006 19.4908C61.7025 18.8238 62.1344 18.1695 62.5535 17.511C62.7245 17.2416 62.8827 16.9636 63.0538 16.6942C63.4557 16.04 63.862 15.39 64.2639 14.74C64.5846 14.2184 64.9053 13.7009 65.226 13.1793C65.38 12.9312 65.5296 12.6832 65.6793 12.4352C65.8119 12.2214 65.8974 12.2171 66.0257 12.4309C66.3635 12.9911 66.6928 13.5556 67.0306 14.1115C67.3384 14.616 67.6592 15.1078 67.967 15.6081C68.3733 16.2752 68.7709 16.9508 69.1772 17.6179C69.6048 18.3149 70.0367 19.0076 70.4686 19.7004C70.5626 19.85 70.5284 19.9398 70.3403 19.9527C70.0923 19.9698 69.8443 19.974 69.592 19.974C68.3433 19.974 67.0904 19.974 65.8375 19.9698C65.8375 19.974 65.8375 19.9698 65.8375 19.9698Z" fill="#CBCEDC"/>
</svg>
