<svg width="158" height="37" viewBox="0 0 158 37" fill="none" xmlns="http://www.w3.org/2000/svg">
<path fill-rule="evenodd" clip-rule="evenodd" d="M16.4046 7.01584C14.8168 7.01584 13.5286 8.30368 13.5286 9.89167C13.5286 11.48 14.8168 12.7679 16.4046 12.7679C17.9928 12.7679 19.2808 11.48 19.2808 9.89167C19.2808 8.30368 17.9928 7.01584 16.4046 7.01584ZM14.4127 0.281143H18.3967V3.12057C19.4636 3.27586 20.4907 3.55379 21.4631 3.94025L22.8819 1.48284L26.3319 3.47494L24.9115 5.93524C25.7428 6.59423 26.4959 7.34755 27.1549 8.17929L29.6156 6.75845L31.6075 10.2086L29.1499 11.6275C29.5364 12.5998 29.8137 13.6266 29.9693 14.6938H32.8092V18.6778H29.9693C29.8137 19.7444 29.5359 20.7714 29.1497 21.7439L31.6076 23.1629L29.6156 26.613L27.1542 25.1922C26.4955 26.0235 25.7422 26.7765 24.9109 27.4354L26.3322 29.8967L22.8823 31.8888L21.463 29.4306L21.417 29.4484L21.4168 17.621L25.033 15.5333V11.1009L18.5806 14.8263H18.4599V14.896L18.4499 14.9017L18.4599 14.9195V30.2402L18.3967 30.2502V33.0903H14.4127V30.2502L14.3674 30.2433V14.9195L14.3777 14.9017L14.3674 14.896V14.8263H14.2467L7.79434 11.1009V15.5333L11.4107 17.621L11.4105 29.4559L11.3462 29.4311L9.92725 31.8888L6.47719 29.8967L7.89815 27.4354C7.06689 26.7769 6.31373 26.0231 5.65477 25.1922L3.19397 26.613L1.20173 23.1629L3.65972 21.7439C3.27314 20.7717 2.9958 19.7441 2.84024 18.6778H0V14.6938H2.84008C2.99549 13.6267 3.27314 12.5998 3.65941 11.6272L1.20188 10.2086L3.19397 6.75845L5.65429 8.17882C6.31293 7.34756 7.06641 6.59392 7.89767 5.93508L6.4775 3.47494L9.92741 1.48284L11.3462 3.94009C12.3185 3.55363 13.3457 3.27586 14.4127 3.12057V0.281143Z" fill="#CBCEDC"/>
<path d="M157.084 9.05748L152.902 16.8754L156.938 24.73H154.32L151.484 18.73L148.72 24.73H146.029L150.175 17.1665L146.065 9.05748H148.611L151.52 15.3847L154.538 9.05748H157.084ZM141.157 13.821C141.157 13.0452 141.005 12.4575 140.702 12.0573C140.399 11.6574 139.896 11.4574 139.193 11.4574H135.848C134.272 11.4574 133.484 12.2452 133.484 13.821V15.8574H141.157V13.821ZM139.193 9.05748C140.623 9.05748 141.666 9.44513 142.32 10.2211C142.975 10.9967 143.302 12.1604 143.302 13.7119V17.9302H133.484V19.9663C133.605 20.7666 133.799 21.3605 134.066 21.7481C134.332 22.1362 134.853 22.3299 135.629 22.3299H142.757V24.73H135.702C134.296 24.73 133.205 24.3725 132.429 23.6573C131.653 22.9424 131.266 21.8574 131.266 20.4029V13.821C131.266 10.6452 132.842 9.05748 135.993 9.05748H139.193ZM128.611 11.4211H125.521C124.527 11.4211 123.769 11.706 123.248 12.2756C122.727 12.8453 122.466 13.6877 122.466 14.8029V24.73H120.32V9.05748H122.284L122.356 11.0576C122.526 10.3785 122.951 9.87573 123.629 9.54849C124.308 9.2211 125.193 9.05748 126.284 9.05748H128.611V11.4211ZM109.739 11.4211C107.993 11.4211 107.121 12.427 107.121 14.4392V19.4209C107.121 20.4149 107.321 21.1544 107.72 21.6389C108.12 22.1243 108.769 22.3663 109.666 22.3663H112.502C114.272 22.3663 115.157 21.336 115.157 19.2757V14.3303C115.157 12.3906 114.308 11.4211 112.612 11.4211H109.739ZM113.084 9.05748C115.92 9.05748 117.339 10.6573 117.339 13.8576V19.8211C117.339 21.4697 116.969 22.6999 116.229 23.5121C115.49 24.324 114.405 24.73 112.975 24.73H109.157C107.702 24.73 106.63 24.324 105.938 23.5121C105.248 22.6999 104.902 21.4697 104.902 19.8211V13.8576C104.902 10.6573 106.357 9.05748 109.266 9.05748H113.084ZM103.702 11.0936H100.211V24.73H98.0295V9.53021C98.0295 5.36058 99.8719 3.27566 103.557 3.27566H103.775V5.67571C101.496 5.67571 100.332 6.74251 100.284 8.87558H103.702V11.0936ZM92.8298 22.3663V18.0757H87.0117C86.4052 18.0757 85.9265 18.2512 85.5754 18.603C85.2236 18.9542 85.0479 19.5061 85.0479 20.2576C85.0479 21.009 85.2419 21.5482 85.6294 21.8756C86.0173 22.2029 86.4782 22.3663 87.0117 22.3663H92.8298ZM95.0479 24.73H87.1934C85.8844 24.73 84.8297 24.3423 84.0297 23.5664C83.2296 22.7909 82.8298 21.6753 82.8298 20.2212C82.8298 18.7664 83.2419 17.6513 84.0662 16.8754C84.89 16.0997 86.0173 15.712 87.4476 15.712H92.8298V14.2937C92.8298 13.3484 92.6299 12.633 92.2296 12.1484C91.8294 11.6636 91.169 11.4211 90.2476 11.4211H83.9567V9.05748H90.2115C91.9567 9.05748 93.2054 9.54231 93.9567 10.5119C94.7083 11.4818 95.0839 12.8031 95.0839 14.4756L95.0479 24.73ZM81.2658 24.73H80.9021C79.06 24.73 77.7083 24.2876 76.8479 23.4029C75.9872 22.5179 75.5568 21.1908 75.5568 19.4209V3.49382H77.9205V9.09389H81.3388V11.2755H77.8479V19.5665C77.8479 21.4333 78.9871 22.3663 81.2658 22.3663V24.73ZM60.7931 24.73V22.3663H68.0657C68.8173 22.3663 69.4417 22.1967 69.9387 21.8574C70.4357 21.518 70.6844 20.9967 70.6844 20.2937C70.6844 19.5906 70.4722 19.0572 70.0477 18.6936C69.6233 18.3301 69.0236 18.1482 68.2477 18.1482H64.6842C61.751 18.1482 60.2842 16.5968 60.2842 13.4938C60.2842 12.0393 60.6904 10.9363 61.5027 10.1847C62.3142 9.43323 63.3995 9.05748 64.7568 9.05748H72.0294V11.4574H64.4661C63.1325 11.4574 62.4662 12.112 62.4662 13.4213C62.4662 14.2211 62.6419 14.8151 62.9933 15.2028C63.3451 15.5908 63.9449 15.7846 64.7933 15.7846H68.1752C69.8478 15.7846 71.0477 16.1603 71.7752 16.9121C72.5022 17.6636 72.8659 18.7908 72.8659 20.2937C72.8659 21.7726 72.4296 22.8815 71.557 23.6211C70.6844 24.3605 69.5571 24.73 68.1752 24.73H60.7931ZM47.1931 10.9484C47.4601 10.3179 47.9023 9.84535 48.5207 9.53021C49.1387 9.21491 49.8356 9.05748 50.6115 9.05748H53.5209C54.9024 9.05748 55.9206 9.44513 56.5751 10.2211C57.2296 10.9967 57.5568 12.1845 57.5568 13.7848V24.73H55.4117V14.1483C55.4117 12.3302 54.551 11.4211 52.8295 11.4211H50.3207C48.3327 11.4211 47.3391 12.4879 47.3391 14.6208V24.73H45.1936V9.05748H47.157L47.1931 10.9484ZM42.1751 24.73H39.957V9.05748H42.1751V24.73ZM42.2842 5.4574H40.0296V3.27566H42.3207L42.2842 5.4574Z" fill="#CBCEDC"/>
<path d="M130.387 32.0287C130.387 32.7345 130.523 33.2501 130.799 33.5735C131.073 33.8988 131.416 34.0597 131.827 34.0597C132.236 34.0597 132.579 33.8988 132.857 33.5766C133.133 33.2535 133.272 32.7484 133.272 32.0581C133.272 31.3993 133.13 30.9027 132.844 30.5688C132.559 30.2352 132.214 30.0676 131.812 30.0676C131.417 30.0676 131.081 30.2318 130.802 30.5622C130.525 30.8907 130.387 31.3803 130.387 32.0287ZM129.65 35.2616L130.516 35.3929C130.552 35.6664 130.654 35.8655 130.817 35.9918C131.039 36.1594 131.341 36.2439 131.723 36.2439C132.137 36.2439 132.454 36.1594 132.679 35.9918C132.904 35.8221 133.054 35.5851 133.133 35.2825C133.181 35.0955 133.201 34.7066 133.198 34.1111C132.809 34.5803 132.324 34.8153 131.743 34.8153C131.02 34.8153 130.461 34.5488 130.066 34.0147C129.67 33.4817 129.471 32.8403 129.471 32.0945C129.471 31.5809 129.562 31.1068 129.743 30.6726C129.926 30.2387 130.189 29.9034 130.533 29.6663C130.878 29.4311 131.284 29.3115 131.748 29.3115C132.368 29.3115 132.88 29.569 133.282 30.0831V29.4342H134.104V34.0855C134.104 34.9227 134.02 35.5177 133.855 35.8671C133.687 36.2165 133.424 36.493 133.062 36.6955C132.701 36.8977 132.257 37 131.728 37C131.101 37 130.594 36.8548 130.209 36.5659C129.823 36.2769 129.637 35.8426 129.65 35.2616ZM124.177 34.8153V29.4342H124.978V30.1988C125.365 29.6073 125.922 29.3115 126.65 29.3115C126.968 29.3115 127.258 29.3703 127.523 29.4861C127.79 29.6039 127.988 29.756 128.119 29.9463C128.253 30.135 128.345 30.3597 128.398 30.6192C128.43 30.7884 128.447 31.0843 128.447 31.5065V34.8153H127.555V31.5409C127.555 31.1711 127.522 30.8927 127.453 30.7075C127.383 30.5239 127.26 30.377 127.084 30.2678C126.907 30.1575 126.701 30.102 126.463 30.102C126.083 30.102 125.757 30.2264 125.48 30.4723C125.204 30.7194 125.067 31.1866 125.067 31.8769V34.8153H124.177ZM121.928 34.8153V29.4342H122.821V34.8153H121.928ZM121.928 28.4364V27.3863H122.821V28.4364H121.928ZM116.881 32.1291C116.881 32.8194 117.023 33.3349 117.307 33.6757C117.591 34.0163 117.925 34.1875 118.312 34.1875C118.701 34.1875 119.032 34.0233 119.304 33.6977C119.576 33.3728 119.713 32.8747 119.713 32.2053C119.713 31.4686 119.574 30.9286 119.297 30.5847C119.02 30.2387 118.679 30.0676 118.272 30.0676C117.877 30.0676 117.545 30.2334 117.28 30.5637C117.015 30.8942 116.881 31.4167 116.881 32.1291ZM119.697 34.8153V34.1356C119.365 34.6701 118.875 34.9366 118.228 34.9366C117.809 34.9366 117.423 34.8189 117.073 34.5818C116.721 34.3466 116.449 34.0163 116.255 33.591C116.062 33.1667 115.966 32.681 115.966 32.1291C115.966 31.593 116.053 31.1053 116.228 30.6676C116.403 30.2298 116.665 29.8944 117.015 29.6628C117.365 29.4293 117.756 29.3115 118.189 29.3115C118.505 29.3115 118.787 29.3807 119.034 29.5171C119.282 29.6539 119.483 29.8321 119.638 30.0516V27.3863H120.524V34.8153H119.697ZM114.006 32.1139C113.682 32.2503 113.197 32.3646 112.552 32.4594C112.185 32.5134 111.925 32.5738 111.775 32.6412C111.623 32.7086 111.505 32.8073 111.424 32.9387C111.341 33.0684 111.299 33.2121 111.299 33.3713C111.299 33.615 111.39 33.8172 111.569 33.9799C111.748 34.141 112.012 34.2219 112.358 34.2219C112.701 34.2219 113.007 34.146 113.274 33.9918C113.54 33.8381 113.738 33.6274 113.863 33.3609C113.959 33.1548 114.006 32.8504 114.006 32.4493V32.1139ZM114.081 34.1511C113.75 34.438 113.432 34.6407 113.128 34.76C112.822 34.8778 112.495 34.9366 112.145 34.9366C111.567 34.9366 111.125 34.7929 110.814 34.5039C110.505 34.2154 110.349 33.8451 110.349 33.3968C110.349 33.1323 110.407 32.8917 110.525 32.674C110.641 32.456 110.795 32.2817 110.984 32.15C111.176 32.0183 111.388 31.9184 111.626 31.8505C111.8 31.804 112.064 31.7575 112.417 31.7142C113.137 31.6259 113.667 31.5221 114.006 31.3993C114.01 31.2746 114.012 31.1951 114.012 31.1623C114.012 30.7904 113.927 30.5273 113.758 30.377C113.532 30.1694 113.192 30.0676 112.745 30.0676C112.326 30.0676 112.017 30.142 111.815 30.2923C111.616 30.4429 111.47 30.709 111.373 31.0913L110.503 30.9686C110.582 30.5882 110.713 30.2783 110.893 30.0447C111.074 29.8096 111.337 29.6279 111.681 29.5021C112.023 29.3758 112.42 29.3115 112.873 29.3115C113.323 29.3115 113.686 29.3668 113.966 29.4742C114.247 29.583 114.452 29.7181 114.586 29.8825C114.718 30.0467 114.809 30.2523 114.863 30.5033C114.891 30.659 114.907 30.9391 114.907 31.3438V32.5599C114.907 33.4089 114.926 33.9453 114.964 34.1684C115.001 34.3931 115.077 34.6097 115.189 34.8153H114.258C114.167 34.6266 114.106 34.4055 114.081 34.1511ZM107.266 34.8153V29.4342H108.068V30.2492C108.272 29.8685 108.461 29.6163 108.635 29.4949C108.807 29.3738 108.998 29.3115 109.206 29.3115C109.506 29.3115 109.81 29.4102 110.121 29.6054L109.814 30.4529C109.598 30.3202 109.38 30.2543 109.162 30.2543C108.966 30.2543 108.792 30.3151 108.637 30.4344C108.481 30.5552 108.371 30.7215 108.306 30.934C108.206 31.2576 108.156 31.6119 108.156 31.9977V34.8153H107.266ZM103.422 34.8153V28.2633H101.031V27.3863H106.781V28.2633H104.381V34.8153H103.422ZM93.1665 34.8153L95.0875 32.0183L93.3101 29.4342H94.4231L95.2307 30.6954C95.381 30.9356 95.5048 31.1362 95.5956 31.2989C95.7408 31.0758 95.8741 30.8787 95.9978 30.7055L96.8828 29.4342H97.947L96.1311 31.9683L98.0858 34.8153H96.9926L95.9133 33.1427L95.6258 32.6915L94.2462 34.8153H93.1665ZM88.7966 31.6065H91.7307C91.6918 31.1553 91.5787 30.8147 91.3947 30.5898C91.1111 30.2387 90.7426 30.0622 90.2916 30.0622C89.8831 30.0622 89.5384 30.2022 89.2595 30.4828C88.9807 30.7628 88.8272 31.1383 88.7966 31.6065ZM91.7207 33.0823L92.6414 33.1982C92.4962 33.7498 92.2273 34.177 91.8358 34.4814C91.4423 34.7843 90.9405 34.9366 90.3305 34.9366C89.5618 34.9366 88.9521 34.6942 88.5023 34.21C88.0517 33.7258 87.8272 33.0459 87.8272 32.1709C87.8272 31.2645 88.0549 30.5622 88.5095 30.0622C88.9656 29.5625 89.555 29.3115 90.2813 29.3115C90.9838 29.3115 91.5585 29.5571 92.0032 30.0467C92.449 30.5361 92.6715 31.2266 92.6715 32.1139C92.6715 32.1689 92.6699 32.2503 92.6664 32.3572H88.7478C88.78 32.949 88.9438 33.4023 89.2377 33.7152C89.5312 34.0298 89.8965 34.1875 90.3352 34.1875C90.6617 34.1875 90.9405 34.0992 91.1714 33.9229C91.403 33.7482 91.5855 33.4681 91.7207 33.0823ZM84.7393 34.8153V29.4342H85.5401V30.2492C85.7444 29.8685 85.9336 29.6163 86.1073 29.4949C86.2799 29.3738 86.4707 29.3115 86.6785 29.3115C86.9792 29.3115 87.283 29.4102 87.594 29.6054L87.2866 30.4529C87.0704 30.3202 86.8523 30.2543 86.6345 30.2543C86.4385 30.2543 86.2648 30.3151 86.1089 30.4344C85.9538 30.5552 85.844 30.7215 85.7781 30.934C85.6782 31.2576 85.6294 31.6119 85.6294 31.9977V34.8153H84.7393ZM79.6951 32.124C79.6951 32.8143 79.8422 33.3294 80.1362 33.6723C80.4301 34.0163 80.7998 34.1875 81.2444 34.1875C81.6871 34.1875 82.0552 34.0147 82.3491 33.6703C82.641 33.3263 82.7882 32.8003 82.7882 32.0945C82.7882 31.4286 82.641 30.9237 82.3459 30.5812C82.05 30.2387 81.6835 30.0676 81.2444 30.0676C80.7998 30.0676 80.4301 30.2387 80.1362 30.5792C79.8422 30.9201 79.6951 31.4357 79.6951 32.124ZM78.78 32.124C78.78 31.1277 79.0497 30.3891 79.5924 29.9103C80.0429 29.5121 80.5939 29.3115 81.2444 29.3115C81.9675 29.3115 82.5585 29.554 83.0162 30.0397C83.476 30.5239 83.704 31.1932 83.704 32.0481C83.704 32.7414 83.6025 33.286 83.3998 33.6824C83.1967 34.0806 82.9012 34.3881 82.5149 34.6082C82.1258 34.8274 81.7041 34.9366 81.2444 34.9366C80.5098 34.9366 79.9148 34.696 79.4603 34.2118C79.0061 33.7292 78.78 33.034 78.78 32.124ZM73.0837 34.8153V27.3863H77.9792V28.2633H74.0448V30.5637H77.4485V31.4407H74.0448V34.8153H73.0837ZM69.2342 33.9988L69.3623 34.8049C69.1124 34.8587 68.8879 34.8863 68.6904 34.8863C68.3659 34.8863 68.1157 34.8344 67.9368 34.729C67.7591 34.6252 67.6345 34.4868 67.5615 34.3156C67.489 34.146 67.4521 33.7862 67.4521 33.2396V30.1435H66.798V29.4342H67.4521V28.1009L68.3386 27.554V29.4342H69.2342V30.1435H68.3386V33.2896C68.3386 33.551 68.3537 33.7173 68.3846 33.7916C68.4163 33.8655 68.4671 33.9244 68.5381 33.9698C68.6091 34.0127 68.7102 34.0357 68.8419 34.0357C68.9415 34.0357 69.072 34.0233 69.2342 33.9988ZM61.653 34.8153V29.4342H62.4535V30.1988C62.8402 29.6073 63.3979 29.3115 64.1258 29.3115C64.4435 29.3115 64.7338 29.3703 64.9992 29.4861C65.2661 29.6039 65.4637 29.756 65.5953 29.9463C65.729 30.135 65.8202 30.3597 65.8746 30.6192C65.9063 30.7884 65.9234 31.0843 65.9234 31.5065V34.8153H65.0313V31.5409C65.0313 31.1711 64.9976 30.8927 64.9282 30.7075C64.8588 30.5239 64.7358 30.377 64.5601 30.2678C64.3828 30.1575 64.1765 30.102 63.9385 30.102C63.5581 30.102 63.2321 30.2264 62.9552 30.4723C62.68 30.7194 62.5431 31.1866 62.5431 31.8769V34.8153H61.653ZM59.3707 32.1139C59.0462 32.2503 58.5615 32.3646 57.9166 32.4594C57.5497 32.5134 57.2895 32.5738 57.1395 32.6412C56.9872 32.7086 56.869 32.8073 56.7877 32.9387C56.7052 33.0684 56.6632 33.2121 56.6632 33.3713C56.6632 33.615 56.754 33.8172 56.9333 33.9799C57.1122 34.141 57.3759 34.2219 57.7222 34.2219C58.0653 34.2219 58.3707 34.146 58.6377 33.9918C58.9046 33.8381 59.1022 33.6274 59.2271 33.3609C59.3235 33.1548 59.3707 32.8504 59.3707 32.4493V32.1139ZM59.4453 34.1511C59.1141 34.438 58.7964 34.6407 58.4925 34.76C58.1867 34.8778 57.8591 34.9366 57.5092 34.9366C56.9317 34.9366 56.489 34.7929 56.1785 34.5039C55.8691 34.2154 55.7136 33.8451 55.7136 33.3968C55.7136 33.1323 55.7711 32.8917 55.8893 32.674C56.0059 32.456 56.1594 32.2817 56.349 32.15C56.5398 32.0183 56.7524 31.9184 56.9908 31.8505C57.1649 31.804 57.4283 31.7575 57.7813 31.7142C58.5009 31.6259 59.0312 31.5221 59.3707 31.3993C59.3743 31.2746 59.3759 31.1951 59.3759 31.1623C59.3759 30.7904 59.2914 30.5273 59.1228 30.377C58.8959 30.1694 58.5568 30.0676 58.109 30.0676C57.6901 30.0676 57.3807 30.142 57.18 30.2923C56.9805 30.4429 56.8337 30.709 56.7373 31.0913L55.8675 30.9686C55.9468 30.5882 56.0769 30.2783 56.2574 30.0447C56.4383 29.8096 56.702 29.6279 57.0447 29.5021C57.3874 29.3758 57.7849 29.3115 58.2371 29.3115C58.6865 29.3115 59.0498 29.3668 59.3302 29.4742C59.6107 29.583 59.8169 29.7181 59.9502 29.8825C60.0819 30.0467 60.1731 30.2523 60.2271 30.5033C60.256 30.659 60.2711 30.9391 60.2711 31.3438V32.5599C60.2711 33.4089 60.2897 33.9453 60.3286 34.1684C60.3659 34.3931 60.4417 34.6097 60.5531 34.8153H59.6222C59.5313 34.6266 59.4707 34.4055 59.4453 34.1511ZM55.1444 33.9988L55.2729 34.8049C55.023 34.8587 54.7981 34.8863 54.6006 34.8863C54.2761 34.8863 54.0262 34.8344 53.8473 34.729C53.67 34.6252 53.5447 34.4868 53.4721 34.3156C53.3995 34.146 53.3626 33.7862 53.3626 33.2396V30.1435H52.7086V29.4342H53.3626V28.1009L54.2491 27.554V29.4342H55.1444V30.1435H54.2491V33.2896C54.2491 33.551 54.2646 33.7173 54.2948 33.7916C54.3265 33.8655 54.3773 33.9244 54.4483 33.9698C54.5197 34.0127 54.6208 34.0357 54.7525 34.0357C54.8521 34.0357 54.9822 34.0233 55.1444 33.9988ZM47.7762 33.2086L48.6564 33.0665C48.7052 33.4283 48.8436 33.7049 49.0701 33.8988C49.295 34.0907 49.6107 34.1875 50.0177 34.1875C50.4266 34.1875 50.7305 34.101 50.9284 33.9314C51.1259 33.7602 51.2255 33.5595 51.2255 33.3314C51.2255 33.1238 51.1378 32.963 50.9617 32.8437C50.8403 32.7623 50.5365 32.6601 50.0514 32.5358C49.3993 32.3662 48.9451 32.2208 48.6933 32.0966C48.4418 31.9734 48.249 31.8022 48.1193 31.5845C47.9892 31.3663 47.9234 31.1262 47.9234 30.8632C47.9234 30.6226 47.9769 30.401 48.0852 30.1973C48.1915 29.9912 48.3387 29.8215 48.5227 29.6868C48.6615 29.583 48.8507 29.4931 49.0887 29.4206C49.3287 29.3479 49.5853 29.3115 49.859 29.3115C50.2711 29.3115 50.6329 29.3738 50.945 29.4949C51.2576 29.6163 51.4873 29.7805 51.636 29.9878C51.7848 30.1973 51.8859 30.4739 51.9418 30.8217L51.072 30.9446C51.0311 30.6676 50.9165 30.4514 50.7273 30.2957C50.5381 30.14 50.2696 30.0622 49.9233 30.0622C49.5143 30.0622 49.222 30.1314 49.0479 30.2698C48.8725 30.408 48.7845 30.5707 48.7845 30.7558C48.7845 30.8752 48.8218 30.9805 48.8944 31.0758C48.9673 31.1747 49.0804 31.254 49.2355 31.3195C49.3251 31.3528 49.5869 31.4303 50.0228 31.5515C50.6531 31.7242 51.0922 31.8644 51.3401 31.9752C51.5904 32.0842 51.7863 32.2448 51.9283 32.4545C52.0703 32.6637 52.1413 32.9232 52.1413 33.2346C52.1413 33.5391 52.0533 33.8242 51.8811 34.0941C51.707 34.3621 51.4571 34.5697 51.1311 34.7166C50.805 34.8638 50.435 34.9366 50.0228 34.9366C49.339 34.9366 48.8182 34.791 48.46 34.5005C48.1023 34.21 47.8742 33.7792 47.7762 33.2086ZM42.4956 34.8153V29.4342H43.2964V30.1988C43.6832 29.6073 44.2409 29.3115 44.9687 29.3115C45.2864 29.3115 45.5768 29.3703 45.8421 29.4861C46.1087 29.6039 46.3066 29.756 46.4383 29.9463C46.572 30.135 46.6632 30.3597 46.7175 30.6192C46.7493 30.7884 46.7659 31.0843 46.7659 31.5065V34.8153H45.8743V31.5409C45.8743 31.1711 45.8406 30.8927 45.7711 30.7075C45.7021 30.5239 45.5788 30.377 45.4026 30.2678C45.2253 30.1575 45.0195 30.102 44.7811 30.102C44.4011 30.102 44.0751 30.2264 43.7982 30.4723C43.5225 30.7194 43.3857 31.1866 43.3857 31.8769V34.8153H42.4956ZM39.957 34.8153V27.3863H40.9165V34.8153H39.957Z" fill="#CBCEDC"/>
</svg>
