<svg width="68" height="68" viewBox="0 0 68 68" fill="none" xmlns="http://www.w3.org/2000/svg">
<path d="M39 40C23.536 40 11 52.536 11 68H67C67 52.536 54.464 40 39 40Z" fill="#C2F9E6"/>
<path d="M46.0927 38.8244L46.0967 38.8322L48.8167 44.2722C49.054 44.7467 48.9937 45.3158 48.6623 45.73L37.7823 59.33C37.2073 60.0488 36.0993 60.0007 35.5887 59.2349L30.307 51.3123L26.7746 54.1069C26.2333 54.535 25.4572 54.4899 24.9691 54.0019L23.8379 52.8707L20.6894 56.0192C19.2214 57.4871 16.8415 57.4871 15.3736 56.0192L11.9811 52.6268C10.5132 51.1588 10.5132 48.7789 11.9811 47.311L15.1296 44.1624L13.9985 43.0313C13.5105 42.5433 13.4654 41.7671 13.8936 41.2258L16.6881 37.6933L8.76578 32.4118C7.99992 31.9012 7.95183 30.7932 8.67059 30.2182L22.2706 19.3382C22.6848 19.0068 23.2539 18.9465 23.7284 19.1837L29.1684 21.9037L29.1761 21.9076L31.3186 19.1993C37.895 10.8863 48.4069 6.74775 58.3182 8.59434C58.8708 8.6973 59.3031 9.12963 59.4061 9.68224C61.2527 19.5935 57.1141 30.1054 48.8011 36.6818L46.0927 38.8244ZM43.9137 40.5482L32.4473 49.6192L36.8202 56.1785L45.9947 44.7104L43.9137 40.5482ZM27.4522 24.0867L23.2903 22.0057L11.8221 31.1803L18.3813 35.5531L27.4522 24.0867ZM21.9146 50.9473L17.053 46.0857L13.9044 49.2343C13.4987 49.64 13.4987 50.2977 13.9044 50.7034L17.2969 54.0959C17.7026 54.5016 18.3603 54.5016 18.766 54.0959L21.9146 50.9473ZM33.4518 20.8869L16.7779 41.964L26.0365 51.2226L47.1135 34.5486C54.3851 28.7961 58.1248 19.7412 56.886 11.1144C48.2592 9.87565 39.2043 13.6153 33.4518 20.8869ZM40.0718 18.3118C42.7274 15.6563 47.0329 15.6563 49.6885 18.3118C52.344 20.9674 52.344 25.2729 49.6885 27.9285C47.0329 30.584 42.7274 30.584 40.0718 27.9285C37.4163 25.2729 37.4163 20.9674 40.0718 18.3118ZM47.7651 26.0052C49.3585 24.4118 49.3585 21.8285 47.7651 20.2352C46.1718 18.6418 43.5885 18.6418 41.9952 20.2352C40.4018 21.8285 40.4018 24.4118 41.9952 26.0052C43.5885 27.5985 46.1718 27.5985 47.7651 26.0052Z" fill="#1A3349"/>
</svg>
